<svg width="50" height="50" viewBox="0 0 50 50" fill="none" xmlns="http://www.w3.org/2000/svg">
<path d="M25 0C11.1813 0 0 11.1823 0 25C0 38.8187 11.1823 50 25 50C38.8187 50 50 38.8177 50 25C50 11.1813 38.8176 0 25 0ZM25 46.0938C13.3405 46.0938 3.90625 36.6587 3.90625 25C3.90625 13.3405 13.3413 3.90625 25 3.90625C36.6595 3.90625 46.0938 13.3413 46.0938 25C46.0938 36.6595 36.6586 46.0938 25 46.0938Z" fill="#6F6EBB"/>
<path d="M25 20.9307C23.9213 20.9307 23.0469 21.8051 23.0469 22.8838V35.4612C23.0469 36.54 23.9213 37.4144 25 37.4144C26.0787 37.4144 26.9531 36.5399 26.9531 35.4611V22.8838C26.9531 21.8051 26.0787 20.9307 25 20.9307Z" fill="#6F6EBB"/>
<path d="M25 18.5391C26.4562 18.5391 27.6367 17.3586 27.6367 15.9023C27.6367 14.4461 26.4562 13.2656 25 13.2656C23.5438 13.2656 22.3633 14.4461 22.3633 15.9023C22.3633 17.3586 23.5438 18.5391 25 18.5391Z" fill="#6F6EBB"/>
</svg>
