<svg width="50" height="50" viewBox="0 0 50 50" fill="none" xmlns="http://www.w3.org/2000/svg">
<path d="M35.9202 26.7725H26.7715V35.9212C31.4552 35.1639 35.1629 31.456 35.9202 26.7725Z" fill="#6F6EBB"/>
<path d="M26.7715 14.0791V23.2277H35.9202C35.1629 18.544 31.4551 14.8363 26.7715 14.0791Z" fill="#6F6EBB"/>
<path d="M39.4995 26.7725C38.6927 33.4135 33.4125 38.6936 26.7715 39.5005V50.0001C39.182 49.129 49.128 39.1829 49.9993 26.7725H39.4995Z" fill="#6F6EBB"/>
<path d="M26.7715 0.000976562V10.5007C33.4125 11.3075 38.6927 16.5877 39.4995 23.2286H49.9992C49.128 10.8182 39.1819 0.872264 26.7715 0.000976562Z" fill="#6F6EBB"/>
<path d="M0 23.2287H10.4997C11.3065 16.5877 16.5867 11.3076 23.2277 10.5008V0.000976562C10.8173 0.872264 0.871287 10.8182 0 23.2287Z" fill="#6F6EBB"/>
<path d="M14.0791 23.2277H23.2278V14.0791C18.5442 14.8364 14.8364 18.5441 14.0791 23.2277Z" fill="#6F6EBB"/>
<path d="M10.4997 26.7725H0C0.871287 39.1829 10.8173 49.129 23.2277 50.0001V39.5006C16.5868 38.6937 11.3065 33.4135 10.4997 26.7725Z" fill="#6F6EBB"/>
<path d="M14.0791 26.7725C14.8364 31.456 18.5441 35.1639 23.2278 35.9212V26.7725H14.0791Z" fill="#6F6EBB"/>
</svg>
