<svg width="50" height="50" viewBox="0 0 50 50" fill="none" xmlns="http://www.w3.org/2000/svg">
<path d="M7.32232 42.6778C9.61713 44.9725 12.2903 46.7745 15.2677 48.0339C18.3523 49.3386 21.6266 50 25 50C28.3732 50 31.6476 49.3386 34.7322 48.0339C37.7096 46.7745 40.3828 44.9725 42.6777 42.6778C44.9724 40.3829 46.7746 37.7097 48.0338 34.7323C49.3384 31.6477 50 28.3733 50 25.0001C50 21.6266 49.3384 18.3523 48.0338 15.2678C46.7746 12.2903 44.9723 9.61718 42.6777 7.32236C40.3828 5.02753 37.7096 3.22546 34.7322 1.96615C31.6476 0.661433 28.3732 0 25 0C21.6266 0 18.3523 0.661518 15.2677 1.96615C12.2903 3.22546 9.61713 5.02762 7.32232 7.32236C5.02751 9.6171 3.22545 12.2903 1.96606 15.2677C0.661514 18.3523 0 21.6266 0 25.0001C0 28.3734 0.661514 31.6477 1.96614 34.7323C3.22545 37.7097 5.02759 40.3829 7.32232 42.6778ZM25 3.64963C36.7914 3.64963 46.3502 13.2085 46.3502 25.0001C46.3502 36.7915 36.7914 46.3504 25 46.3504C13.2085 46.3504 3.64962 36.7915 3.64962 25.0001C3.64962 13.2085 13.2085 3.64963 25 3.64963Z" fill="#6F6EBB"/>
<path d="M15.7113 34.2889C16.0677 34.6454 16.5346 34.8235 17.0016 34.8235C17.4687 34.8235 17.9357 34.6453 18.2919 34.2889L25.0001 27.5807L31.7084 34.2889C32.0646 34.6454 32.5317 34.8235 32.9987 34.8235C33.4657 34.8235 33.9326 34.6453 34.289 34.2889C35.0016 33.5765 35.0016 32.421 34.289 31.7084L27.5807 25.0002L34.2888 18.2919C35.0015 17.5792 35.0015 16.4238 34.2888 15.7112C33.5764 14.9986 32.4209 14.9986 31.7083 15.7112L25 22.4195L18.2919 15.7112C17.5792 14.9986 16.4238 14.9986 15.7112 15.7112C14.9986 16.4239 14.9986 17.5792 15.7112 18.2919L22.4195 25.0002L15.7112 31.7084C14.9987 32.421 14.9987 33.5765 15.7113 34.2889Z" fill="#6F6EBB"/>
</svg>
