<svg width="49" height="49" viewBox="0 0 49 49" fill="none" xmlns="http://www.w3.org/2000/svg">
<path d="M24.5 0C10.97 0 0 10.97 0 24.5C0 38.03 10.97 49 24.5 49C38.03 49 49 38.03 49 24.5C49 10.97 38.03 0 24.5 0ZM35.91 33.135C36.675 33.9 36.675 35.14 35.91 35.905C35.525 36.29 35.025 36.48 34.525 36.48C34.025 36.48 33.52 36.29 33.14 35.905L24.5 27.27L15.86 35.91C15.475 36.295 14.975 36.485 14.475 36.485C13.975 36.485 13.47 36.295 13.09 35.91C12.325 35.145 12.325 33.905 13.09 33.14L21.73 24.5L13.09 15.86C12.325 15.095 12.325 13.855 13.09 13.09C13.855 12.325 15.095 12.325 15.86 13.09L24.5 21.73L33.14 13.09C33.905 12.325 35.145 12.325 35.91 13.09C36.675 13.855 36.675 15.095 35.91 15.86L27.27 24.5L35.91 33.135Z" fill="#F32735"/>
</svg>
