<svg width="50" height="50" viewBox="0 0 50 50" fill="none" xmlns="http://www.w3.org/2000/svg">
<path d="M49.5709 0.429118C49.1566 0.0146659 48.5349 -0.112775 47.9912 0.104802L0.92085 18.9327C0.382276 19.1481 0.0216326 19.661 0.000929525 20.2408C-0.0196759 20.8205 0.303761 21.3577 0.825635 21.6108L19.3869 30.6129L28.3891 49.1742C28.6346 49.6804 29.1473 49.9999 29.7067 49.9999C29.7241 49.9999 29.7416 49.9996 29.7591 49.9989C30.3387 49.9783 30.8517 49.6176 31.0671 49.0791L49.8952 2.009C50.1127 1.46486 49.9853 0.843473 49.5709 0.429118ZM5.08725 20.4216L42.453 5.4754L20.1846 27.7436L5.08725 20.4216ZM29.5783 44.9127L22.2562 29.8151L44.5247 7.54688L29.5783 44.9127Z" fill="#6F6EBB"/>
</svg>
