<svg width="100" height="50" viewBox="0 0 100 50" fill="none" xmlns="http://www.w3.org/2000/svg">
<path d="M10.7428 43.794C12.3795 43.794 13.9768 44.372 15.2127 45.4718C18.3824 48.2924 22.5209 49.9996 27.0484 49.9996H41.7422C43.7371 49.9996 45.3545 48.3422 45.3545 46.2975C45.3545 44.2529 43.7373 42.5953 41.7422 42.5953H45.3545C47.3494 42.5953 48.9668 40.9379 48.9668 38.8932C48.9668 36.8486 47.3494 35.191 45.3545 35.191H46.3879C48.3828 35.191 50.0002 33.5336 50.0002 31.4888C50.0002 29.4443 48.383 27.7867 46.3879 27.7867H45.0842C47.0791 27.7867 48.6965 26.1293 48.6965 24.0845C48.6965 22.04 47.0793 20.3824 45.0842 20.3824H35.9516V16.6802C35.9516 14.6356 34.3344 12.978 32.3393 12.978H27.0484C22.5209 12.978 18.3826 14.6853 15.2127 17.5059C13.977 18.6056 12.3795 19.1837 10.7428 19.1837L0.81543 19.1845C0.365039 19.1845 0 19.5588 0 20.0202V42.9572C0 43.4188 0.365039 43.793 0.81543 43.793L10.7428 43.794Z" fill="#FFCCBC"/>
<path d="M45.3545 35.191H46.3879C48.3828 35.191 50.0002 33.5334 50.0002 31.4888C50.0002 29.4441 48.3828 27.7867 46.3879 27.7867H45.0842C47.0791 27.7867 48.6965 26.1292 48.6965 24.0845C48.6965 22.0399 47.0791 20.3823 45.0842 20.3823H36.0006C35.0668 21.3265 34.4867 22.6371 34.4867 24.0845C34.4867 25.8954 35.3945 27.4924 36.7676 28.4248C36.1539 29.2849 35.7904 30.344 35.7904 31.489C35.7904 32.6898 36.1904 33.796 36.8596 34.6775C35.5848 35.6238 34.7531 37.1605 34.7531 38.8933C34.7531 39.7161 34.9412 40.4945 35.2742 41.1867C33.0209 41.6253 31.2943 43.5954 31.1594 45.9964H19.2359C17.8871 45.9964 16.574 45.8417 15.3096 45.5542C18.4668 48.3246 22.5662 49.9998 27.0484 49.9998H41.7422C43.7373 49.9998 45.3545 48.3422 45.3545 46.2977C45.3545 44.2531 43.7373 42.5955 41.7422 42.5955H45.3545C47.3496 42.5955 48.9668 40.9379 48.9668 38.8933C48.9668 36.8488 47.3496 35.191 45.3545 35.191Z" fill="#FF8A65"/>
<path d="M32.3391 34.3999C29.5396 34.3999 27.2619 32.0657 27.2619 29.1964V26.4221C26.2805 27.0644 25.1156 27.4369 23.8674 27.4369C20.3801 27.4369 17.543 24.5294 17.543 20.9554C17.543 20.1261 18.1988 19.4541 19.0078 19.4541C19.8168 19.4541 20.4727 20.1261 20.4727 20.9554C20.4727 22.8736 21.9955 24.4344 23.8674 24.4344C25.7391 24.4344 27.2619 22.8736 27.2619 20.9554C27.2619 20.1261 27.9178 19.4541 28.7268 19.4541C29.5357 19.4541 30.1916 20.1261 30.1916 20.9554V29.1964C30.1916 30.4101 31.1549 31.3973 32.3391 31.3973C33.5232 31.3973 34.4865 30.4099 34.4865 29.1964V21.8838C34.4865 21.0545 35.1424 20.3825 35.9514 20.3825C36.7603 20.3825 37.4162 21.0545 37.4162 21.8838V29.1964C37.4162 32.0657 35.1387 34.3999 32.3391 34.3999Z" fill="#FF8A65"/>
<path d="M45.0838 27.7867H39.5635C37.5686 27.7867 35.9512 26.1292 35.9512 24.0845C35.9512 22.0399 37.5684 20.3823 39.5635 20.3823H45.0838C47.0787 20.3823 48.6961 22.0397 48.6961 24.0845C48.6961 26.1292 47.0787 27.7867 45.0838 27.7867Z" fill="#FFCCBC"/>
<path d="M46.4672 20.665C46.6441 21.102 46.7428 21.5804 46.7428 22.0831C46.7428 24.1278 45.1256 25.7852 43.1305 25.7852H37.6102C37.1199 25.7852 36.6529 25.6841 36.2266 25.5028C36.7697 26.8435 38.0586 27.7869 39.5633 27.7869H45.0836C47.0785 27.7869 48.6959 26.1295 48.6959 24.0848C48.6961 22.5426 47.7754 21.2217 46.4672 20.665Z" fill="#FF8A65"/>
<path d="M45.3504 42.5953H39.8301C37.8352 42.5953 36.2178 40.9378 36.2178 38.8931C36.2178 36.8485 37.835 35.1909 39.8301 35.1909H45.3504C47.3453 35.1909 48.9627 36.8483 48.9627 38.8931C48.9627 40.9376 47.3455 42.5953 45.3504 42.5953Z" fill="#FFCCBC"/>
<path d="M46.7338 35.4736C46.9107 35.9104 47.0094 36.389 47.0094 36.8916C47.0094 38.9362 45.3922 40.5938 43.3971 40.5938H37.8768C37.3865 40.5938 36.9195 40.4927 36.4932 40.3114C37.0363 41.6521 38.3252 42.5955 39.8299 42.5955H45.3502C47.3451 42.5955 48.9625 40.9379 48.9625 38.8934C48.9625 37.351 48.042 36.0301 46.7338 35.4736Z" fill="#FF8A65"/>
<path d="M41.7439 49.9995H36.2236C34.2287 49.9995 32.6113 48.3421 32.6113 46.2974C32.6113 44.2528 34.2285 42.5952 36.2236 42.5952H41.7439C43.7389 42.5952 45.3563 44.2526 45.3563 46.2974C45.3561 48.3421 43.7389 49.9995 41.7439 49.9995Z" fill="#FFCCBC"/>
<path d="M43.1273 42.8779C43.3043 43.3147 43.4029 43.7933 43.4029 44.2959C43.4029 46.3405 41.7857 47.9981 39.7906 47.9981H34.2703C33.7801 47.9981 33.3131 47.897 32.8867 47.7157C33.4299 49.0564 34.7187 49.9998 36.2234 49.9998H41.7437C43.7387 49.9998 45.3561 48.3422 45.3561 46.2977C45.3561 44.7553 44.4355 43.4344 43.1273 42.8779Z" fill="#FF8A65"/>
<path d="M46.3875 35.1914H40.8672C38.8723 35.1914 37.2549 33.534 37.2549 31.4893C37.2549 29.4447 38.8721 27.7871 40.8672 27.7871H46.3875C48.3824 27.7871 49.9998 29.4445 49.9998 31.4893C49.9998 33.5338 48.3826 35.1914 46.3875 35.1914Z" fill="#FFCCBC"/>
<path d="M89.2574 43.794C87.6207 43.794 86.0235 44.372 84.7875 45.4718C81.6178 48.2924 77.4793 49.9996 72.9518 49.9996H58.258C56.2631 49.9996 54.6457 48.3422 54.6457 46.2975C54.6457 44.2529 56.2629 42.5953 58.258 42.5953H54.6457C52.6508 42.5953 51.0334 40.9379 51.0334 38.8932C51.0334 36.8486 52.6508 35.191 54.6457 35.191H53.6123C51.6174 35.191 50 33.5336 50 31.4888C50 29.4443 51.6172 27.7867 53.6123 27.7867H54.916C52.9211 27.7867 51.3037 26.1293 51.3037 24.0845C51.3037 22.04 52.9209 20.3824 54.916 20.3824H64.0486V16.6802C64.0486 14.6356 65.6658 12.978 67.6609 12.978H72.9518C77.4793 12.978 81.6176 14.6853 84.7875 17.5059C86.0233 18.6056 87.6207 19.1837 89.2574 19.1837L99.1848 19.1845C99.6352 19.1845 100 19.5588 100 20.0202V42.9572C100 43.4188 99.6352 43.793 99.1848 43.793L89.2574 43.794Z" fill="#FFCCBC"/>
<path d="M100 20.0211C100 19.5595 99.635 19.1854 99.1846 19.1854L92.1875 19.1846V32.1989C92.1875 36.3915 88.8713 39.7904 84.7805 39.7908L81.4447 39.791C79.808 39.791 78.2108 40.3691 76.9748 41.4688C73.8051 44.2894 69.6666 45.9967 65.1391 45.9967H54.6603C54.6525 46.0964 54.6455 46.1963 54.6455 46.298C54.6455 48.3425 56.2627 50.0001 58.2578 50.0001H72.9516C77.4789 50.0001 81.6174 48.2929 84.7873 45.4722C86.0233 44.3725 87.6205 43.7944 89.2572 43.7944L99.1846 43.7936C99.635 43.7936 100 43.4193 100 42.9579V20.0211V20.0211Z" fill="#FF8A65"/>
<path d="M67.6607 34.3999C70.4602 34.3999 72.7379 32.0657 72.7379 29.1964V26.4221C73.7193 27.0644 74.8842 27.4369 76.1324 27.4369C79.6197 27.4369 82.4568 24.5294 82.4568 20.9554C82.4568 20.1261 81.801 19.4541 80.992 19.4541C80.183 19.4541 79.5271 20.1261 79.5271 20.9554C79.5271 22.8736 78.0043 24.4344 76.1324 24.4344C74.2607 24.4344 72.7379 22.8736 72.7379 20.9554C72.7379 20.1261 72.082 19.4541 71.273 19.4541C70.4641 19.4541 69.8082 20.1261 69.8082 20.9554V29.1964C69.8082 30.4101 68.8449 31.3973 67.6607 31.3973C66.4766 31.3973 65.5133 30.4099 65.5133 29.1964V21.8838C65.5133 21.0545 64.8574 20.3825 64.0484 20.3825H60.4072V27.0616H62.5836V29.1964C62.5836 32.0657 64.8611 34.3999 67.6607 34.3999Z" fill="#FF8A65"/>
<path d="M51.3037 24.0845C51.3037 26.129 52.9209 27.7867 54.916 27.7867H60.4363C62.4312 27.7867 64.0486 26.1292 64.0486 24.0845C64.0486 22.0399 62.4314 20.3823 60.4363 20.3823H54.916C52.9211 20.3823 51.3037 22.0399 51.3037 24.0845Z" fill="#FFCCBC"/>
<path d="M54.6504 42.5953H60.1707C62.1656 42.5953 63.783 40.9378 63.783 38.8931C63.783 36.8485 62.1658 35.1909 60.1707 35.1909H54.6504C52.6555 35.1909 51.0381 36.8483 51.0381 38.8931C51.0381 40.9376 52.6553 42.5953 54.6504 42.5953Z" fill="#FFCCBC"/>
<path d="M58.2559 49.9995H63.7762C65.7711 49.9995 67.3885 48.3421 67.3885 46.2974C67.3885 44.2528 65.7713 42.5952 63.7762 42.5952H58.2559C56.2609 42.5952 54.6436 44.2526 54.6436 46.2974C54.6437 48.3421 56.2609 49.9995 58.2559 49.9995Z" fill="#FFCCBC"/>
<path d="M53.6123 35.1914H59.1326C61.1275 35.1914 62.7449 33.534 62.7449 31.4893C62.7449 29.4447 61.1277 27.7871 59.1326 27.7871H53.6123C51.6174 27.7871 50 29.4445 50 31.4893C50 33.5338 51.6172 35.1914 53.6123 35.1914Z" fill="#FFCCBC"/>
<path d="M61.8197 20.665C61.9967 21.102 62.0953 21.5804 62.0953 22.0831C62.0953 24.1278 60.4781 25.7852 58.483 25.7852H52.9627C52.4725 25.7852 52.0055 25.6841 51.5791 25.5028C52.1223 26.8435 53.4111 27.7869 54.9158 27.7869H60.4361C62.431 27.7869 64.0484 26.1295 64.0484 24.0848C64.0484 22.5426 63.1279 21.2217 61.8197 20.665Z" fill="#FF8A65"/>
<path d="M61.5541 35.4736C61.7311 35.9104 61.8297 36.389 61.8297 36.8916C61.8297 38.9362 60.2125 40.5938 58.2174 40.5938H52.6971C52.2068 40.5938 51.7398 40.4927 51.3135 40.3114C51.8566 41.6521 53.1455 42.5955 54.6502 42.5955H60.1705C62.1654 42.5955 63.7828 40.9379 63.7828 38.8934C63.7828 37.351 62.8623 36.0301 61.5541 35.4736Z" fill="#FF8A65"/>
<path d="M65.1596 42.8779C65.3365 43.3147 65.4352 43.7933 65.4352 44.2959C65.4352 46.3405 63.818 47.9981 61.8228 47.9981H56.3025C55.8123 47.9981 55.3453 47.897 54.9189 47.7157C55.4621 49.0564 56.751 49.9998 58.2557 49.9998H63.776C65.7709 49.9998 67.3883 48.3422 67.3883 46.2977C67.3883 44.7553 66.4678 43.4344 65.1596 42.8779Z" fill="#FF8A65"/>
<path d="M60.516 28.0693C60.693 28.5063 60.7916 28.9847 60.7916 29.4873C60.7916 31.5321 59.1744 33.1895 57.1793 33.1895H51.659C51.1687 33.1895 50.7018 33.0884 50.2754 32.9071C50.8186 34.2478 52.1074 35.1912 53.6121 35.1912H59.1324C61.1273 35.1912 62.7447 33.5338 62.7447 31.4891C62.7447 29.9469 61.8242 28.626 60.516 28.0693Z" fill="#FF8A65"/>
<path d="M47.7709 28.0693C47.9478 28.5063 48.0465 28.9847 48.0465 29.4873C48.0465 31.5321 46.4293 33.1895 44.4342 33.1895H38.9139C38.4236 33.1895 37.9566 33.0884 37.5303 32.9071C38.0734 34.2478 39.3623 35.1912 40.867 35.1912H46.3873C48.3822 35.1912 49.9996 33.5338 49.9996 31.4891C49.9996 29.9469 49.0791 28.626 47.7709 28.0693Z" fill="#FF8A65"/>
<path d="M42.6005 12.7613C42.2257 12.7613 41.8507 12.6148 41.5648 12.3218L36.5912 7.22441C36.0191 6.63791 36.0191 5.6875 36.5912 5.1012C37.1632 4.5151 38.0908 4.5151 38.6626 5.1012L43.6363 10.1986C44.2083 10.7851 44.2083 11.7355 43.6363 12.3218C43.3503 12.6148 42.9753 12.7613 42.6005 12.7613Z" fill="#EF5350"/>
<path d="M57.3994 12.7613C57.0246 12.7613 56.6496 12.6148 56.3636 12.3218C55.7916 11.7353 55.7916 10.7849 56.3636 10.1986L61.3373 5.1012C61.9093 4.5151 62.8369 4.5151 63.4087 5.1012C63.9808 5.6877 63.9808 6.63811 63.4087 7.22441L58.4351 12.3218C58.1492 12.6148 57.7744 12.7613 57.3994 12.7613Z" fill="#EF5350"/>
<path d="M50 10.2113C49.191 10.2113 48.5352 9.53935 48.5352 8.71004V1.50128C48.5352 0.671974 49.191 0 50 0C50.809 0 51.4648 0.671974 51.4648 1.50128V8.71004C51.4648 9.53935 50.809 10.2113 50 10.2113Z" fill="#EF5350"/>
</svg>
