<svg width="50" height="50" viewBox="0 0 50 50" fill="none" xmlns="http://www.w3.org/2000/svg">
<path d="M48.3212 5.10517H38.7861V1.62562C38.7861 0.727831 38.0582 0 37.1605 0C36.2627 0 35.5348 0.727831 35.5348 1.62562V5.10517H14.5463V1.62562C14.5463 0.727831 13.8185 0 12.9207 0C12.0229 0 11.2951 0.727831 11.2951 1.62562V5.10517H1.6804C0.782617 5.10517 0.0546875 5.833 0.0546875 6.73078V48.3744C0.0546875 49.2722 0.782518 50 1.6804 50H48.3213C49.2191 50 49.947 49.2722 49.947 48.3744V6.73078C49.9469 5.833 49.2191 5.10517 48.3212 5.10517V5.10517ZM3.30602 46.7488V8.3565H11.2951V11.4322C11.2951 12.3299 12.0229 13.0578 12.9207 13.0578C13.8185 13.0578 14.5463 12.3299 14.5463 11.4322V8.3565H23.3751V46.7488H3.30602ZM46.6956 46.7488H26.6264V8.3565H35.5347V11.4322C35.5347 12.3299 36.2626 13.0578 37.1604 13.0578C38.0581 13.0578 38.786 12.3299 38.786 11.4322V8.3565H46.6954V46.7488H46.6956Z" fill="#6F6EBB"/>
<path d="M13.6594 37.143C12.7884 37.143 12.0821 36.4369 12.0821 35.5657V23.9258C10.5761 23.8308 10.0622 21.8778 11.2981 21.044L12.7772 20.0461C13.8228 19.3407 15.2367 20.091 15.2367 21.3536V35.5658C15.2367 36.4369 14.5305 37.143 13.6594 37.143V37.143Z" fill="#6F6EBB"/>
<path d="M41.5924 37.2202C41.3505 37.2202 43.001 37.2352 34.9465 37.1499C33.0965 37.1304 31.5914 35.6094 31.5914 33.7592C31.5914 32.5464 32.2452 31.4188 33.2978 30.8163C38.6491 27.7529 38.2412 27.9796 38.3789 27.923C39.7625 27.3561 40.4248 25.7302 39.7468 24.331C39.1939 23.1898 37.8353 22.5997 36.6265 22.9631L33.3902 24.4625C32.5997 24.8287 31.6621 24.4849 31.296 23.6945C30.9297 22.904 31.2736 21.9664 32.064 21.6002C35.6775 19.926 35.4329 20.0347 35.5523 19.9947C40.1531 18.4559 44.5333 22.9869 42.7866 27.5534C42.2313 29.0054 41.1019 30.1824 39.6781 30.7988L34.865 33.554C34.6559 33.6737 34.7411 33.9928 34.9799 33.9954L41.6088 34.0656C42.4799 34.0748 43.1785 34.7884 43.1694 35.6595C43.1601 36.5249 42.4557 37.2202 41.5924 37.2202V37.2202Z" fill="#6F6EBB"/>
</svg>
