<svg width="50" height="50" viewBox="0 0 50 50" fill="none" xmlns="http://www.w3.org/2000/svg">
<path d="M44.6474 50H30.3584C29.8847 50 29.4304 49.8118 29.0954 49.4769C28.7604 49.142 28.5722 48.6877 28.5722 48.2141V35.7125H21.4278V48.2141C21.4278 48.6877 21.2396 49.142 20.9046 49.4769C20.5696 49.8118 20.1153 50 19.6416 50H5.35264C4.87893 50 4.42463 49.8118 4.08966 49.4769C3.7547 49.142 3.56652 48.6877 3.56652 48.2141V28.5688H1.7804C1.43335 28.5677 1.09414 28.4655 0.80423 28.2747C0.514323 28.084 0.286278 27.8129 0.147969 27.4946C0.00965942 27.1763 -0.032923 26.8247 0.0254261 26.4826C0.0837752 26.1405 0.240528 25.8229 0.476525 25.5684L23.6961 0.565343C23.8632 0.386908 24.0651 0.244664 24.2894 0.14742C24.5137 0.0501755 24.7555 0 25 0C25.2445 0 25.4863 0.0501755 25.7106 0.14742C25.9349 0.244664 26.1368 0.386908 26.3039 0.565343L49.5235 25.5684C49.7595 25.8229 49.9162 26.1405 49.9746 26.4826C50.0329 26.8247 49.9903 27.1763 49.852 27.4946C49.7137 27.8129 49.4857 28.084 49.1958 28.2747C48.9059 28.4655 48.5667 28.5677 48.2196 28.5688H46.4335V48.2141C46.4335 48.6877 46.2453 49.142 45.9103 49.4769C45.5754 49.8118 45.1211 50 44.6474 50ZM32.1445 46.4281H42.8612V26.7829C42.8474 26.3797 42.9705 25.9837 43.2106 25.6594C43.4506 25.3351 43.7933 25.1016 44.183 24.9969L25 4.4051L5.81704 24.9969C6.2067 25.1016 6.54945 25.3351 6.78945 25.6594C7.02946 25.9837 7.15258 26.3797 7.13877 26.7829V46.4281H17.8555V33.9266C17.8555 33.4529 18.0437 32.9987 18.3787 32.6637C18.7136 32.3288 19.1679 32.1407 19.6416 32.1407H30.3584C30.8321 32.1407 31.2864 32.3288 31.6214 32.6637C31.9563 32.9987 32.1445 33.4529 32.1445 33.9266V46.4281Z" fill="#6F6EBB"/>
</svg>
