<svg width="50" height="50" viewBox="0 0 50 50" fill="none" xmlns="http://www.w3.org/2000/svg">
<path d="M25.785 20.397H44.6132C47.5837 20.397 50.0003 22.8136 50.0003 25.7841V44.6123C50.0003 47.5832 47.5837 49.9998 44.6132 49.9998H25.785C23.085 49.9998 20.8423 48.0028 20.4566 45.408L15.5197 41.8817C15.1348 41.6071 14.9062 41.163 14.9062 40.6896C14.9062 40.2166 15.1348 39.7726 15.5197 39.4979L20.3979 36.0136V25.7841C20.3979 22.8136 22.8145 20.397 25.785 20.397Z" fill="#6F6EBB"/>
<path d="M20 20C18.5 21.5 17.4679 23.8174 17.4679 25.7843V29.6028H5.3875C2.41661 29.6028 0 27.1862 0 24.2157V5.38712C0 2.41661 2.41661 0 5.3875 0H24.2153C26.9154 0 29.158 1.99699 29.5441 4.59175L34.481 8.11806C34.8656 8.39272 35.0941 8.83675 35.0941 9.31015C35.0941 9.78317 34.8656 10.2272 34.481 10.5019L29.6028 13.9862V17.4675H25.7851C23.6004 17.4675 21.4413 18.5587 20 20Z" fill="#6F6EBB"/>
<path d="M37.4043 38.6895H31.8965L30.7441 42H28.1758L33.5469 27.7812H35.7637L41.1445 42H38.5664L37.4043 38.6895ZM32.5898 36.6973H36.7109L34.6504 30.7988L32.5898 36.6973Z" fill="#FEFFFE"/>
<path d="M8.59309 19.8779C7.46738 19.5049 6.60154 18.776 5.16221 16.99C4.58275 16.2709 4.0726 15.5965 4.02854 15.4913C3.972 15.3563 3.99829 15.2221 4.11789 15.035L4.28736 14.77L5.42226 16.1986C6.71732 17.8288 7.20744 18.2175 8.08068 18.3071C8.9263 18.3938 9.38587 18.1819 9.97169 17.4351C10.5292 16.7244 10.7621 16.0408 10.7613 15.1175C10.7606 14.3545 10.6265 13.7762 10.3543 13.3628L10.1307 13.0232L9.80449 13.2909C9.62507 13.4382 9.32452 13.6207 9.13659 13.6965L8.79489 13.8343L8.18604 13.0622C7.85117 12.6376 7.6066 12.2586 7.64255 12.22C7.67849 12.1815 7.8734 12.0899 8.07568 12.0164C8.52853 11.8521 9.28696 11.002 9.54355 10.3712C9.76471 9.82757 9.80454 8.84548 9.6272 8.3088C9.48036 7.86441 9.2012 7.70027 8.59225 7.70027C7.94457 7.70027 7.26939 8.04482 6.72629 8.65247L6.27579 9.15653L5.66407 8.36373L5.05235 7.57094L5.47543 7.0769C6.36131 6.04245 7.7288 5.7602 8.77013 6.39688C9.46345 6.82078 10.3811 7.98901 10.7194 8.87839C11.1307 9.95972 11.1123 11.4371 10.6777 12.217L10.5156 12.5079L10.9346 13.0903L11.3537 13.6727L12.6028 12.468L13.8519 11.2634L13.8559 9.48185L13.86 7.70027H13.2918H12.7236L12.1378 6.88018L11.552 6.06009L14.0924 6.03004L16.6327 6L17.3164 6.85014L18 7.70027H16.5939H15.1877V13.834V19.9677L14.5238 19.125L13.86 18.2823V16.2151C13.86 15.0781 13.8374 14.1479 13.8098 14.1479C13.7822 14.1479 13.3697 14.5316 12.8932 15.0005C12.1366 15.7452 12.0322 15.8889 12.0691 16.1356C12.1353 16.5778 11.9202 17.7693 11.6658 18.3698C11.1254 19.6457 9.8223 20.2853 8.59309 19.8779Z" fill="#FEFFFE"/>
</svg>
