<svg width="97" height="71" viewBox="0 0 97 71" fill="none" xmlns="http://www.w3.org/2000/svg">
<path d="M10.498 34.4756V47H3.17383V11.4531H17.041C19.7103 11.4531 22.054 11.9414 24.0723 12.918C26.1068 13.8945 27.6693 15.2861 28.7598 17.0928C29.8503 18.8831 30.3955 20.9258 30.3955 23.2207C30.3955 26.7038 29.1992 29.4544 26.8066 31.4727C24.4303 33.4746 21.1344 34.4756 16.9189 34.4756H10.498ZM10.498 28.543H17.041C18.9779 28.543 20.4508 28.0872 21.46 27.1758C22.4854 26.2643 22.998 24.9622 22.998 23.2695C22.998 21.528 22.4854 20.1201 21.46 19.0459C20.4346 17.9717 19.0186 17.4183 17.2119 17.3857H10.498V28.543ZM47.7051 27.4688L55.1025 11.4531H63.1104L51.4404 34.1094V47H43.9941V34.1094L32.3242 11.4531H40.3564L47.7051 27.4688ZM94.7754 30.0322C94.7754 33.3525 94.2383 36.2415 93.1641 38.6992C92.0898 41.1406 90.6006 43.1019 88.6963 44.583L94.6045 49.2217L89.9414 53.3477L82.373 47.2686C81.5104 47.415 80.6152 47.4883 79.6875 47.4883C76.7415 47.4883 74.113 46.7803 71.8018 45.3643C69.4906 43.9482 67.7002 41.93 66.4307 39.3096C65.1611 36.6729 64.5182 33.6455 64.502 30.2275V28.4697C64.502 24.9704 65.1286 21.8942 66.3818 19.2412C67.6514 16.5719 69.4336 14.5293 71.7285 13.1133C74.0397 11.681 76.6764 10.9648 79.6387 10.9648C82.6009 10.9648 85.2295 11.681 87.5244 13.1133C89.8356 14.5293 91.6178 16.5719 92.8711 19.2412C94.1406 21.8942 94.7754 24.9622 94.7754 28.4453V30.0322ZM87.3535 28.4209C87.3535 24.6937 86.6862 21.8617 85.3516 19.9248C84.0169 17.988 82.1126 17.0195 79.6387 17.0195C77.181 17.0195 75.2848 17.9798 73.9502 19.9004C72.6156 21.8047 71.9401 24.6042 71.9238 28.2988V30.0322C71.9238 33.6618 72.5911 36.4775 73.9258 38.4795C75.2604 40.4814 77.181 41.4824 79.6875 41.4824C82.1452 41.4824 84.0332 40.5221 85.3516 38.6016C86.6699 36.6647 87.3372 33.849 87.3535 30.1543V28.4209Z" fill="#6F6EBB"/>
<path d="M9.44727 55.4336L9.51562 56.5371C10.2578 55.6712 11.2734 55.2383 12.5625 55.2383C13.9753 55.2383 14.9421 55.7786 15.4629 56.8594C16.2311 55.7786 17.3118 55.2383 18.7051 55.2383C19.8704 55.2383 20.7363 55.5605 21.3027 56.2051C21.8757 56.8496 22.1686 57.8001 22.1816 59.0566V66H19.8086V59.125C19.8086 58.4544 19.6621 57.9629 19.3691 57.6504C19.0762 57.3379 18.5911 57.1816 17.9141 57.1816C17.3737 57.1816 16.931 57.3281 16.5859 57.6211C16.2474 57.9076 16.0098 58.2852 15.873 58.7539L15.8828 66H13.5098V59.0469C13.4772 57.8034 12.8424 57.1816 11.6055 57.1816C10.6549 57.1816 9.98112 57.569 9.58398 58.3438V66H7.21094V55.4336H9.44727ZM30.1738 60.6191C30.1738 59.584 30.3789 58.653 30.7891 57.8262C31.1992 56.9928 31.7754 56.3548 32.5176 55.9121C33.2598 55.4629 34.1126 55.2383 35.0762 55.2383C36.502 55.2383 37.6576 55.6973 38.543 56.6152C39.4349 57.5332 39.9167 58.7507 39.9883 60.2676L39.998 60.8242C39.998 61.8659 39.7962 62.7969 39.3926 63.6172C38.9954 64.4375 38.4225 65.0723 37.6738 65.5215C36.9316 65.9707 36.0723 66.1953 35.0957 66.1953C33.6048 66.1953 32.4102 65.7005 31.5117 64.7109C30.6198 63.7148 30.1738 62.39 30.1738 60.7363V60.6191ZM32.5469 60.8242C32.5469 61.9115 32.7715 62.7643 33.2207 63.3828C33.6699 63.9948 34.2949 64.3008 35.0957 64.3008C35.8965 64.3008 36.5182 63.9883 36.9609 63.3633C37.4102 62.7383 37.6348 61.8236 37.6348 60.6191C37.6348 59.5514 37.4036 58.7051 36.9414 58.0801C36.4857 57.4551 35.8639 57.1426 35.0762 57.1426C34.3014 57.1426 33.6862 57.4518 33.2305 58.0703C32.7747 58.6823 32.5469 59.6003 32.5469 60.8242ZM52.3457 64.3008C52.9382 64.3008 53.4297 64.1283 53.8203 63.7832C54.2109 63.4382 54.4193 63.0117 54.4453 62.5039H56.6816C56.6556 63.1615 56.4505 63.7767 56.0664 64.3496C55.6823 64.916 55.1615 65.3652 54.5039 65.6973C53.8464 66.0293 53.1367 66.1953 52.375 66.1953C50.8971 66.1953 49.7253 65.7168 48.8594 64.7598C47.9935 63.8027 47.5605 62.4811 47.5605 60.7949V60.5508C47.5605 58.9427 47.9902 57.6569 48.8496 56.6934C49.709 55.7233 50.8809 55.2383 52.3652 55.2383C53.6217 55.2383 54.6439 55.6061 55.4316 56.3418C56.2259 57.071 56.6426 58.0312 56.6816 59.2227H54.4453C54.4193 58.6172 54.2109 58.1191 53.8203 57.7285C53.4362 57.3379 52.9447 57.1426 52.3457 57.1426C51.5775 57.1426 50.985 57.4225 50.5684 57.9824C50.1517 58.5358 49.9401 59.3789 49.9336 60.5117V60.8926C49.9336 62.0384 50.1387 62.8945 50.5488 63.4609C50.9655 64.0208 51.5645 64.3008 52.3457 64.3008ZM67.9062 61.4688L66.8516 62.5527V66H64.4785V51H66.8516V59.6523L67.5938 58.7246L70.5137 55.4336H73.3652L69.4395 59.8379L73.7852 66H71.041L67.9062 61.4688ZM86.8457 63.1289C86.8457 62.7057 86.6699 62.3835 86.3184 62.1621C85.9733 61.9408 85.3971 61.7454 84.5898 61.5762C83.7826 61.4069 83.1087 61.1921 82.5684 60.9316C81.3835 60.3587 80.791 59.5286 80.791 58.4414C80.791 57.5299 81.1751 56.7682 81.9434 56.1562C82.7116 55.5443 83.6882 55.2383 84.873 55.2383C86.1361 55.2383 87.1549 55.5508 87.9297 56.1758C88.7109 56.8008 89.1016 57.6113 89.1016 58.6074H86.7285C86.7285 58.1517 86.5592 57.7741 86.2207 57.4746C85.8822 57.1686 85.4329 57.0156 84.873 57.0156C84.3522 57.0156 83.9258 57.1361 83.5938 57.377C83.2682 57.6178 83.1055 57.9401 83.1055 58.3438C83.1055 58.7083 83.2585 58.9915 83.5645 59.1934C83.8704 59.3952 84.4889 59.6003 85.4199 59.8086C86.3509 60.0104 87.0801 60.2546 87.6074 60.541C88.1413 60.821 88.5352 61.1595 88.7891 61.5566C89.0495 61.9538 89.1797 62.4355 89.1797 63.002C89.1797 63.9525 88.7858 64.724 87.998 65.3164C87.2103 65.9023 86.1784 66.1953 84.9023 66.1953C84.0365 66.1953 83.265 66.0391 82.5879 65.7266C81.9108 65.4141 81.3835 64.9844 81.0059 64.4375C80.6283 63.8906 80.4395 63.3014 80.4395 62.6699H82.7441C82.7767 63.2298 82.9883 63.6628 83.3789 63.9688C83.7695 64.2682 84.2871 64.418 84.9316 64.418C85.5566 64.418 86.0319 64.3008 86.3574 64.0664C86.6829 63.8255 86.8457 63.513 86.8457 63.1289Z" fill="#6F6EBB"/>
</svg>
