<svg width="50" height="40" viewBox="0 0 50 40" fill="none" xmlns="http://www.w3.org/2000/svg">
<path d="M7.75955 22.445H34.0906C35.3458 22.445 36.3633 21.3503 36.3633 20C36.3633 18.6497 35.3458 17.555 34.0906 17.555H7.75955L10.698 14.394C11.5856 13.4393 11.5856 11.8912 10.698 10.9363C9.81076 9.9815 8.37167 9.9815 7.48394 10.9363L0.666212 18.2708C0.613485 18.3273 0.563788 18.3865 0.516515 18.4484C0.505 18.4636 0.495152 18.4799 0.483939 18.4954C0.449242 18.5428 0.415152 18.5904 0.383939 18.6406C0.374848 18.6553 0.367424 18.6708 0.358485 18.6856C0.327273 18.7381 0.296667 18.791 0.269091 18.8463C0.263788 18.8572 0.259394 18.8688 0.254091 18.8797C0.225455 18.9395 0.197879 19.0002 0.173788 19.0628C0.170758 19.0704 0.168636 19.0786 0.165758 19.0864C0.141061 19.1523 0.118182 19.2189 0.0987879 19.2875C0.0962121 19.2962 0.0948485 19.3051 0.0925758 19.3139C0.0742424 19.3813 0.0574242 19.4492 0.0445455 19.5188C0.0407576 19.5395 0.0390909 19.5609 0.0356061 19.5818C0.0262121 19.6395 0.0168182 19.6972 0.0115152 19.756C0.00378788 19.8367 0 19.9182 0 20C0 20.0818 0.00378788 20.1633 0.0115152 20.2442C0.0168182 20.3038 0.0265152 20.362 0.0357576 20.4202C0.0390909 20.4404 0.0407576 20.4611 0.0445455 20.4812C0.0575758 20.5514 0.0742424 20.62 0.0927273 20.688C0.095 20.696 0.0963636 20.7045 0.0986364 20.7125C0.118182 20.7814 0.141061 20.8487 0.166061 20.9152C0.168788 20.9224 0.170758 20.9301 0.173636 20.9372C0.197879 21.0003 0.225606 21.0613 0.254545 21.1214C0.259545 21.132 0.263788 21.1431 0.268939 21.1537C0.296818 21.2093 0.327576 21.2628 0.359242 21.3157C0.367727 21.3301 0.375 21.3452 0.383788 21.3592C0.415152 21.4096 0.449545 21.4575 0.484091 21.5051C0.495152 21.5204 0.505 21.5366 0.516364 21.5516C0.563788 21.6134 0.613485 21.6727 0.666061 21.7292L7.48379 29.0637C7.92758 29.5412 8.50924 29.7799 9.09091 29.7799C9.67258 29.7799 10.2542 29.5412 10.6979 29.0637C11.5855 28.1088 11.5855 26.5608 10.6979 25.606L7.75955 22.445Z" fill="#FEFFFE"/>
<path d="M31.4089 0C25.2053 0 19.4335 3.31081 15.9691 8.85616C15.2691 9.97677 15.546 11.4959 16.5877 12.2491C17.6295 13.0022 19.0415 12.7045 19.7418 11.5836C22.3601 7.39211 26.7216 4.88977 31.4089 4.88977C39.1536 4.88994 45.4545 11.6682 45.4545 20C45.4545 28.3318 39.1536 35.1101 31.4089 35.1101C26.7354 35.1101 22.381 32.619 19.7607 28.4466C19.0578 27.3276 17.6454 27.0335 16.6051 27.7893C15.5651 28.5453 15.2915 30.0651 15.9942 31.1839C19.461 36.7043 25.2235 40 31.4089 40C41.66 40 50 31.0281 50 20C50 8.97189 41.66 0 31.4089 0Z" fill="#FEFFFE"/>
</svg>
