<svg width="50" height="50" viewBox="0 0 50 50" fill="none" xmlns="http://www.w3.org/2000/svg">
<g clip-path="url(#clip0)">
<path d="M45.3987 6.27588H4.60127C2.06416 6.27588 0 8.33994 0 10.8803C0 13.4174 2.06416 15.4815 4.60127 15.4815H45.3987C47.9358 15.4815 50 13.4174 50 10.8803C50 8.33994 47.9358 6.27588 45.3987 6.27588Z" fill="#6F6EBB"/>
<path d="M45.3987 20.397H4.60127C2.06416 20.397 0 22.461 0 25.0014C0 27.5385 2.06416 29.6026 4.60127 29.6026H45.3987C47.9358 29.6026 50 27.5385 50 25.0014C50 22.461 47.9358 20.397 45.3987 20.397V20.397Z" fill="#6F6EBB"/>
<path d="M45.3987 34.5186H4.60127C2.06416 34.5186 0 36.5827 0 39.1229C0 41.6601 2.06416 43.7242 4.60127 43.7242H45.3987C47.9358 43.7242 50 41.6601 50 39.1229C50 36.5827 47.9358 34.5186 45.3987 34.5186Z" fill="#6F6EBB"/>
</g>
<defs>
<clipPath id="clip0">
<rect width="50" height="50"/>
</clipPath>
</defs>
</svg>
