<svg width="50" height="50" viewBox="0 0 50 50" fill="none" xmlns="http://www.w3.org/2000/svg">
<path d="M25 31.25C28.4518 31.25 31.25 28.4518 31.25 25C31.25 21.5482 28.4518 18.75 25 18.75C21.5482 18.75 18.75 21.5482 18.75 25C18.75 28.4518 21.5482 31.25 25 31.25Z" fill="#6F6EBB"/>
<path d="M25 50C28.4518 50 31.25 47.2018 31.25 43.75C31.25 40.2982 28.4518 37.5 25 37.5C21.5482 37.5 18.75 40.2982 18.75 43.75C18.75 47.2018 21.5482 50 25 50Z" fill="#6F6EBB"/>
<path d="M25 12.5C28.4518 12.5 31.25 9.70178 31.25 6.25C31.25 2.79822 28.4518 0 25 0C21.5482 0 18.75 2.79822 18.75 6.25C18.75 9.70178 21.5482 12.5 25 12.5Z" fill="#6F6EBB"/>
</svg>
