<svg width="926" height="596" viewBox="0 0 926 596" fill="none" xmlns="http://www.w3.org/2000/svg">
<g clip-path="url(#clip0)">
<path d="M711.268 555.995C592.67 555.995 496.53 546.539 496.53 534.876C496.53 528.844 522.246 523.402 563.48 519.554L561.612 535.525C561.612 535.525 569.294 535.707 581.412 535.707C611.381 535.707 668.469 534.601 703.445 526.921C705.068 526.566 707.129 526.411 709.55 526.411C725.142 526.411 755.55 532.837 778.401 533.223C779.742 533.244 781.081 533.255 782.422 533.255C791.702 533.255 800.978 532.742 810.205 531.704L828.325 529.659C835.169 531.048 842.153 531.757 849.133 531.757C855.828 531.757 862.521 531.106 869.088 529.776C872.652 529.055 876.209 528.131 879.453 526.485C881.572 525.411 883.497 524.059 885.245 522.494C910.886 525.973 926.004 530.251 926.004 534.876C926.004 546.539 829.862 555.995 711.268 555.995" fill="#C4D6F0"/>
<path d="M848.839 527.343L810.206 531.704C799.647 532.892 789.023 533.392 778.402 533.223C752.003 532.777 715.522 524.271 703.446 526.921C654.328 537.705 561.612 535.525 561.612 535.525L563.534 519.105L564.892 507.435C564.892 507.435 577.554 506.875 594.662 505.9C625.864 504.131 671.827 500.987 682.676 497.427C685.52 496.497 690.94 495.097 697.994 493.419C732.527 485.2 806.035 470.259 806.035 470.259L848.839 527.343" fill="#3A4BA7"/>
<path d="M697.993 493.419C695.34 495.351 692.211 496.913 690.309 498.145C684.24 502.032 678.127 505.927 671.448 508.636C664.243 511.561 656.517 513.028 649.321 515.987C642.517 518.767 636.296 522.832 629.417 525.4C621.84 528.24 613.693 529.167 605.628 529.768C591.665 530.799 577.629 530.901 563.664 530.073C563.213 530.049 562.744 530.003 562.273 529.933L563.533 519.106C570.925 514.343 579.307 511.237 587.635 508.327C589.979 507.503 592.32 506.7 594.661 505.9C625.864 504.131 671.827 500.987 682.676 497.427C685.52 496.497 690.94 495.097 697.993 493.419" fill="#38488D"/>
<path d="M820.593 414.908C821.055 423.02 817.125 430.769 812.265 437.28C807.404 443.791 801.519 449.525 797.093 456.339C795.487 458.811 794.116 462.189 795.919 464.523C796.791 465.652 798.219 466.205 799.62 466.485C804.984 467.555 810.439 465.317 815.223 462.665C827.159 456.047 837.56 446.312 843.804 434.176C846.656 428.628 848.645 422.495 848.473 416.259C848.303 410.023 845.759 403.681 840.863 399.815C836.471 396.348 828.143 394.715 823.001 397.705C816.948 401.228 820.275 409.335 820.593 414.908" fill="#F57D20"/>
<path d="M843.329 402.188C843.279 402.129 843.229 402.072 843.179 402.015C843.397 401.884 843.616 401.76 843.835 401.64C843.663 401.82 843.493 402.004 843.329 402.188Z" fill="#EED8B5"/>
<path d="M831.667 439.991C830.788 439.853 829.917 439.689 829.057 439.504C827.759 439.224 826.445 438.896 825.124 438.896C824.927 438.896 824.731 438.904 824.535 438.919C823.979 438.964 823.448 439.077 822.945 439.251C823.008 439.124 823.069 438.996 823.129 438.867C826.303 432.072 826.024 424.059 829.199 417.263C831.232 412.911 837.288 405.513 843.179 402.015C843.229 402.072 843.279 402.129 843.329 402.188C836.192 410.139 834.451 421.933 832.891 432.741C832.547 435.127 832.155 437.564 831.667 439.991" fill="#ED7E20"/>
<path d="M822.538 471.295C822.538 471.295 737.298 430.343 721.685 431.631C706.071 432.917 598.688 497.113 598.688 497.113L621.485 515.724C621.485 515.724 693.461 490.439 718.069 483.66C738.674 477.984 822.535 525.213 841.191 527.241C859.849 529.269 891.529 515.413 891.529 515.413L822.538 471.295" fill="#525EB4"/>
<path d="M767.83 443.585L758.388 441.125C755.968 440.495 754.067 443.173 755.427 445.273C757.694 448.773 760.974 451.729 764.252 454.387C777.512 465.141 792.616 473.837 809.032 478.533C812.019 479.388 810.592 462.632 810.208 461.275C809.036 457.113 807.025 450.893 802.74 448.927C800.245 447.783 796.924 447.876 793.784 447.971C792.105 448.021 790.478 448.072 789.055 447.932C781.855 447.228 774.814 445.405 767.83 443.585" fill="#F89B1C"/>
<path d="M791.251 448.023C790.481 448.023 789.744 448 789.055 447.932C789.744 448 790.483 448.023 791.251 448.023ZM788.659 447.892C787.7 447.793 786.745 447.675 785.792 447.539C785.795 447.536 785.797 447.535 785.8 447.532C786.751 447.668 787.703 447.792 788.659 447.892Z" fill="#F6E8D2"/>
<path d="M781.122 455.832C781.056 452.547 783.264 449.733 785.792 447.539C786.746 447.675 787.7 447.793 788.659 447.892C788.791 447.907 788.923 447.92 789.055 447.932C789.744 448 790.481 448.023 791.251 448.023C791.252 448.023 791.252 448.023 791.252 448.023C792.036 448.023 792.851 447.999 793.68 447.975C793.24 448.817 792.811 449.667 792.391 450.52C788.746 452.516 784.982 454.292 781.122 455.832Z" fill="#F0971D"/>
<path d="M794.4 473.171C793.045 472.564 791.701 471.933 790.369 471.277C790.597 470.401 790.722 469.528 790.672 468.69C792.824 469.955 795.029 471.102 797.285 472.145C796.318 472.477 795.358 472.819 794.4 473.171" fill="#F0971D"/>
<path d="M906.308 389.463C908.953 403.427 906.773 417.821 904.103 431.783C901.432 445.743 898.26 459.797 898.932 473.996C899.187 479.341 899.988 484.676 899.708 490.021C899.431 495.345 898.08 500.575 896.175 505.554C892.912 514.089 887.603 522.352 879.453 526.485C876.209 528.13 872.652 529.054 869.088 529.776C842.314 535.194 813.443 529.357 790.876 513.963C784.319 509.488 777.963 504.123 771.106 500.208C764.984 496.713 764.859 487.997 770.911 484.384C781.039 478.339 791.928 473.571 803.245 470.249C808.431 468.729 813.82 467.459 818.308 464.451C828.276 457.769 831.176 444.619 832.891 432.741C834.604 420.863 836.54 407.792 845.615 399.941C849.811 396.312 874.743 362.263 879.459 359.332C884.511 356.192 887.82 358.912 891.956 362.624C899.639 369.519 904.404 379.413 906.308 389.463" fill="#F89B1C"/>
<path d="M896.203 505.483C896.204 505.476 896.207 505.471 896.209 505.465C896.207 505.471 896.204 505.476 896.203 505.483ZM896.235 505.399C896.235 505.397 896.236 505.395 896.236 505.394C896.236 505.395 896.235 505.397 896.235 505.399Z" fill="#EED8B5"/>
<path d="M849.164 531.753C843.591 531.753 838.014 531.301 832.507 530.412C833.484 525.932 835.498 521.948 839.628 520.406C843.259 519.053 847.551 520.154 851.001 518.392C853.192 517.275 854.8 515.102 857.155 514.394C857.758 514.211 858.368 514.136 858.983 514.136C860.427 514.136 861.895 514.549 863.363 514.963C864.832 515.376 866.302 515.789 867.748 515.789C868.336 515.789 868.92 515.721 869.499 515.557C872.52 514.699 874.202 511.604 875.966 509.008C880.522 502.305 887.712 497.449 895.63 495.724C896.758 495.477 897.934 495.271 899.124 495.063C898.516 498.585 897.507 502.047 896.236 505.394C896.236 505.394 896.235 505.397 896.235 505.399C896.225 505.421 896.218 505.442 896.21 505.465C896.207 505.471 896.204 505.476 896.203 505.483C896.194 505.506 896.184 505.53 896.175 505.554C892.912 514.089 887.603 522.352 879.454 526.485C876.21 528.13 872.652 529.054 869.088 529.776C862.531 531.102 855.85 531.753 849.164 531.753" fill="#E9931F"/>
<path d="M771.437 495.594C778.074 490.7 785.856 487.778 793.77 484.971C801.684 482.16 809.726 479.461 816.856 474.948C828.521 467.559 837.036 455.391 839.978 441.896C841.126 436.609 841.47 431.196 843.329 426.293C845.992 419.233 851.598 413.645 856.324 407.495C861.79 400.368 866.073 392.337 868.945 383.827C871.321 376.753 872.933 369.157 877.932 363.979L877.14 363.216C871.86 368.72 870.268 376.501 867.904 383.475C865.07 391.871 860.845 399.796 855.452 406.825C850.8 412.903 845.089 418.549 842.301 425.904C840.372 431.017 840.037 436.487 838.905 441.663C836.03 454.86 827.678 466.796 816.268 474.02C809.29 478.44 801.329 481.123 793.402 483.935C785.478 486.749 777.588 489.696 770.785 494.708L771.437 495.594" fill="#F57D20"/>
<path d="M849.174 445.661C847.754 445.661 846.32 445.528 844.914 445.375C843.036 445.167 841.16 444.933 839.289 444.675C839.545 443.756 839.774 442.829 839.978 441.896C840.094 441.36 840.204 440.821 840.305 440.283C843.13 439.968 845.858 439.18 848.32 437.733C853 434.979 856.144 430.143 858.033 425.052C859.922 419.961 860.706 414.541 861.733 409.208C863.086 402.169 864.882 395.205 867.232 388.439C867.849 386.919 868.421 385.381 868.945 383.827C868.969 383.757 868.992 383.687 869.016 383.616C869.449 382.516 869.897 381.423 870.362 380.335C872.476 375.393 875.121 370.369 879.621 367.433C882.156 365.781 884.453 365.065 886.512 365.065C886.545 365.065 886.578 365.065 886.61 365.067C884.852 365.997 883.017 367.427 881.056 369.311C875.194 374.936 872.858 383.209 870.992 391.113C868.601 401.276 866.58 411.525 864.973 421.851C864.762 423.139 864.562 424.439 864.374 425.739C864.201 426.939 864.004 428.161 863.762 429.404C862.521 435.897 860.226 442.533 854.285 444.831C852.66 445.457 850.929 445.661 849.174 445.661" fill="#E9931F"/>
<path d="M821.743 441.429C821.221 441.308 820.703 441.184 820.183 441.059C820.961 440.248 821.891 439.616 822.945 439.251C822.579 440 822.176 440.724 821.743 441.429Z" fill="#ED7E20"/>
<path d="M830.924 443.343C827.845 442.776 824.785 442.139 821.743 441.429C822.176 440.724 822.579 440 822.945 439.251C823.448 439.077 823.979 438.964 824.535 438.919C824.731 438.904 824.927 438.896 825.124 438.896C826.445 438.896 827.759 439.224 829.057 439.504C829.917 439.689 830.788 439.853 831.667 439.991C831.44 441.113 831.195 442.232 830.924 443.343" fill="#E37D21"/>
<path d="M838.192 444.52C836.137 444.227 834.089 443.901 832.048 443.547C831.672 443.48 831.297 443.412 830.924 443.343C831.194 442.232 831.44 441.113 831.666 439.991C833.506 440.279 835.378 440.448 837.233 440.448C837.881 440.448 838.526 440.428 839.169 440.384C839.085 440.812 838.997 441.239 838.905 441.663C838.696 442.623 838.458 443.575 838.192 444.52Z" fill="#E9931F"/>
<path d="M839.289 444.675C838.924 444.624 838.557 444.573 838.192 444.52C838.459 443.575 838.696 442.623 838.905 441.663C838.997 441.239 839.085 440.812 839.169 440.384C839.549 440.359 839.928 440.325 840.305 440.283C840.204 440.821 840.095 441.36 839.979 441.896C839.775 442.829 839.545 443.756 839.289 444.675V444.675ZM867.232 388.439C867.795 386.819 868.388 385.212 869.016 383.616C868.992 383.687 868.969 383.757 868.945 383.827C868.421 385.381 867.849 386.919 867.232 388.439" fill="#ED7E20"/>
<path d="M802.972 438.44C802.972 438.44 799.972 436.744 795.311 430.243C790.649 423.741 786.185 421.717 782.977 418.139C779.768 414.563 775.093 409.388 775.952 414.26C776.812 419.132 782.625 424.421 778.475 423.937C774.323 423.453 760.895 410.365 758.396 410.94C755.167 411.683 768.555 428.271 778.164 439.051C787.775 449.831 787.908 449.397 798.187 454.135C808.467 458.873 828.935 445.575 802.972 438.44" fill="#F78FC5"/>
<path d="M812.596 310.755C812.217 313.397 812.595 316.207 811.504 318.643C809.956 322.097 805.667 324.309 805.575 328.095C805.475 332.192 810.325 334.583 811.815 338.403C813.919 343.8 808.703 349.517 809.256 355.285C809.511 357.944 810.972 360.313 812.395 362.576C812.667 363.008 813 363.483 813.505 363.56C814.032 363.639 814.503 363.255 814.889 362.889C817.412 360.499 819.829 357.708 823.165 356.732C825.913 355.927 828.845 356.492 831.707 356.608C834.567 356.723 837.78 356.195 839.5 353.907C840.877 352.076 840.935 349.603 840.875 347.313C840.801 344.561 840.64 341.811 840.391 339.069C840.107 335.933 839.699 332.765 838.519 329.845C837.168 326.504 834.876 323.644 832.613 320.837C829.716 317.243 826.82 313.647 823.923 310.052C820.369 305.641 813.733 302.771 812.596 310.755" fill="#525EB4"/>
<path d="M835.305 345.883C835.305 345.883 845.01 354.581 843.989 363.673C842.48 377.117 868.593 355.507 868.593 355.507L848.665 331.225L835.305 345.883" fill="#F78FC5"/>
<path d="M841.361 353.357C841.361 353.357 848.327 352.253 851.879 347.435C851.879 347.435 852.044 353.179 843.611 358.832L841.361 353.357Z" fill="#F250AE"/>
<path d="M834.149 302.479C834.149 302.479 818.851 307.168 818.24 317.355C817.628 327.539 827.444 356.104 838.847 354.473C850.249 352.843 854.967 344.04 859.223 337.567C877.052 310.451 846.896 294.713 834.149 302.479Z" fill="#F78FC5"/>
<path d="M814.291 422.744C814.698 423.896 815.301 425.223 816.503 425.436C817.44 425.603 818.335 424.987 819.013 424.317C821.451 421.909 822.699 418.423 825.388 416.3C826.859 415.141 828.647 414.481 830.368 413.747C839.151 410 846.884 403.833 852.492 396.105C854.077 393.92 855.512 391.596 857.463 389.731C859.312 387.963 861.553 386.673 863.631 385.18C869.597 380.891 874.245 374.795 876.805 367.908C877.58 365.821 878.172 363.561 877.708 361.384C877.011 358.125 873.975 355.721 870.717 355.012C867.463 354.301 864.048 355.028 860.937 356.224C855.485 358.317 850.531 361.853 844.776 362.857C838.473 363.959 831.571 361.949 825.828 364.773C817.843 368.701 812.236 382.807 809.694 390.964C806.391 401.555 810.784 412.821 814.291 422.744" fill="#1C1C2E"/>
<path d="M844.789 361.765C847.763 360.569 850.235 358.428 852.856 356.583C858.761 352.429 865.653 349.688 872.797 348.651C877.056 348.033 882.561 348.792 883.823 352.908C884.519 355.183 883.537 357.643 882.201 359.613C879.388 363.763 875.071 366.652 871.895 370.531C869.584 373.355 867.924 376.644 865.925 379.696C860.003 388.739 850.949 395.687 840.683 399.068C834.825 400.996 828.353 401.764 822.525 399.747C816.699 397.731 811.746 392.465 811.43 386.307C811.215 382.157 813.021 378.195 814.909 374.493C816.896 370.599 819.101 366.675 822.479 363.897C830.311 357.456 836.883 364.949 844.789 361.765Z" fill="#2B2F59"/>
<path d="M894.586 466.469C889.832 471.724 884.51 476.705 877.991 479.501C870.372 482.766 861.811 482.771 853.515 482.524C830.012 481.835 805.36 479.171 786.056 465.737C789.377 456.084 793.823 446.831 799.303 438.227C799.805 437.427 800.376 436.599 801.243 436.247C802.255 435.849 803.382 436.193 804.408 436.545C808.063 437.759 811.748 438.853 815.471 439.853C820.939 441.327 826.465 442.551 832.048 443.547C836.312 444.288 840.604 444.897 844.915 445.375C848.055 445.716 851.343 445.964 854.286 444.831C860.227 442.533 862.522 435.897 863.763 429.404C864.004 428.161 864.202 426.939 864.375 425.739C864.563 424.439 864.763 423.139 864.973 421.851C866.58 411.525 868.601 401.276 870.992 391.113C872.859 383.209 875.195 374.936 881.056 369.311C890.349 360.377 896.795 361.704 905.87 377.584C913.443 390.841 907.211 452.507 894.586 466.469" fill="#F57D20"/>
<path d="M849.027 460.852C846.152 460.852 843.145 459.656 840.435 458.445C831.575 454.483 822.441 450.055 816.597 442.299C816.051 441.567 815.511 440.745 815.471 439.853C820.939 441.327 826.465 442.551 832.048 443.547C836.312 444.288 840.604 444.897 844.915 445.375C846.32 445.528 847.755 445.661 849.175 445.661C850.929 445.661 852.66 445.457 854.285 444.831C860.227 442.533 862.521 435.897 863.763 429.404C864.004 428.161 864.201 426.939 864.375 425.739C864.563 424.439 864.763 423.139 864.973 421.851C873.587 423.16 877.893 433.608 870.564 442.028C867.18 445.923 862.675 448.747 859.46 452.783C857.375 455.403 855.721 458.607 852.708 460.056C851.532 460.62 850.292 460.852 849.027 460.852" fill="#F17D1F"/>
<path d="M567.209 495.637C563.149 493.561 560.417 489.211 556.07 487.832C555.136 487.535 554.097 487.384 553.192 487.76C551.276 488.556 550.965 491.116 551.124 493.184C552.273 508.132 563.425 521.805 577.837 525.937C580.949 526.831 585.444 524.72 586.809 527.655C587.554 529.261 580.309 537.233 581.357 538.661C583.429 541.477 594.144 536.919 597.173 535.176C600.508 533.257 603.842 531.34 607.177 529.421C608.802 528.487 619.978 519.927 621.025 518.373C622.362 516.39 622.434 513.809 622.073 511.447C621.236 505.999 618.4 501.096 615.616 496.339C612.253 490.589 608.737 487.107 601.242 490.581C593.949 493.963 582.513 503.465 567.209 495.637" fill="#1C1C2E"/>
<path d="M545.002 494.114C539.777 488.843 536.325 481.968 534.521 474.768C534.022 472.781 533.372 470.439 531.438 469.759C529.95 469.236 528.252 470.019 527.249 471.236C526.246 472.455 525.793 474.021 525.4 475.549C523.24 483.947 522.124 492.611 522.088 501.28C522.076 504.165 522.196 507.121 523.27 509.799C525.834 516.187 533.188 519.617 535.908 525.939C536.43 527.153 536.768 528.492 536.556 529.797C536.173 532.157 528.428 534.332 528.856 536.687C529.364 539.472 538.51 540.231 541.338 540.375C547.229 540.676 553.15 540.361 558.977 539.441C561.869 538.984 564.998 538.219 566.757 535.877C568.277 533.855 568.396 531.139 568.456 528.609C568.588 522.956 570.648 507.268 565.094 503.716C562.722 502.199 558.506 502.431 555.808 501.345C551.761 499.717 548.07 497.208 545.002 494.114" fill="#1C1C2E"/>
<path d="M735.102 382.413L738.879 379.373L750.974 394.008L780.744 385.632L780.958 390.873L748.058 398.728L735.102 382.413" fill="white"/>
<path d="M752.354 397.089L780.957 390.873L822.677 428.759L793.446 436.084L752.354 397.089" fill="#F04128"/>
<path d="M733.871 383.292L748.714 400.925L750.395 399.509L735.552 381.877" fill="#F04128"/>
<path d="M752.355 397.089C752.355 397.089 749.321 399.837 745.449 397.847L789.851 438.129L793.447 436.084L752.355 397.089" fill="#D43926"/>
<path d="M780.744 385.632L823.117 423.877L822.677 428.759L780.957 390.873L780.744 385.632" fill="#EDEBEA"/>
<path d="M827.167 308.308C830.677 308.988 832.96 310.113 834.307 313.425C835.475 316.299 835.591 319.728 837.705 321.999C841.528 326.105 849.611 324.053 852.676 328.752C854.305 331.251 853.656 334.585 852.511 337.34C851.365 340.092 849.759 342.763 849.596 345.741C849.377 349.751 851.829 353.412 854.572 356.347C855.127 356.939 855.921 357.567 856.661 357.239C857.083 357.052 857.32 356.615 857.556 356.221C860.041 352.096 865.331 350.461 870.143 350.664C873.84 350.82 878.221 351.605 880.672 348.831C882.508 346.751 882.309 343.551 883.687 341.141C886.133 336.859 892.38 336.599 895.861 333.105C896.489 332.476 897.043 331.655 896.948 330.772C896.741 328.821 894.076 328.577 892.135 328.296C887.7 327.647 884 323.613 883.739 319.139C883.623 317.184 884.089 315.177 883.58 313.284C882.496 309.256 877.741 307.619 874.939 304.529C872.377 301.704 847.188 268.424 821.692 296.217C819.724 298.361 816.529 303.725 817.039 306.835C817.679 310.743 823.493 307.597 827.167 308.308" fill="#525EB4"/>
<path d="M842.372 321.643C842.372 321.643 842.435 312.369 850.429 310.693C858.423 309.017 861.081 322.717 852.861 332.715C844.641 342.713 842.372 321.643 842.372 321.643Z" fill="#F78FC5"/>
<path d="M117.864 565.328C66.3177 565.328 24.5303 554.881 24.5303 541.995C24.5303 529.108 66.3177 518.661 117.864 518.661C169.409 518.661 211.197 529.108 211.197 541.995C211.197 554.881 169.409 565.328 117.864 565.328" fill="#C4D6F0"/>
<path d="M173.829 363.125C170.482 400.347 177.705 470.589 170.393 510.508C170.393 510.508 161.228 514.743 147.94 512.407C134.653 510.071 129.453 393.36 127.746 374.165C126.039 354.96 119.221 314.671 117.064 305.201C115.436 298.048 117.851 284.501 115.84 278.313C114.795 275.112 110.449 274.427 108.607 277.245C105.428 282.121 107.72 294.611 107.214 325.128C106.484 369.156 99.4529 391.753 94.0951 413.857C88.7378 435.963 76.7763 489.095 72.1706 501.371C72.1706 501.371 58.2097 510.003 44.6191 501.837C44.6191 501.837 50.3586 429.133 53.5821 401.672C56.8055 374.209 61.467 348.433 61.3993 320.14C61.3774 311.02 60.7034 300.721 59.8607 290.32C58.4118 272.607 56.4801 254.625 56.4571 241.832C56.4462 238.833 56.5477 236.127 56.7837 233.768C58.5915 215.427 161.576 240.444 161.576 240.444C161.89 247.677 177.177 325.903 173.829 363.125" fill="#3C60B5"/>
<path d="M167.816 281.627C166.982 275.901 166.152 270.479 165.382 265.563C166.362 271.696 167.32 277.655 167.928 281.571C167.89 281.589 167.853 281.608 167.816 281.627ZM163.452 253.408C162.581 247.943 161.937 243.845 161.686 241.668C161.73 241.68 161.753 241.685 161.753 241.685C161.794 242.627 162.504 247.357 163.452 253.408ZM56.4892 244.603C56.4022 240.497 56.4756 236.836 56.7782 233.772C56.8397 233.147 57.0198 232.572 57.3094 232.048C57.023 232.572 56.8449 233.145 56.7834 233.768C56.5474 236.127 56.446 238.833 56.4569 241.832C56.4584 242.731 56.4693 243.655 56.4892 244.603" fill="#9EACB2"/>
<path d="M158.94 283.983C155.066 283.983 150.096 282.749 143.377 278.984C129.168 271.02 106.51 258.933 87.9345 255.469C88.5001 253.049 88.4517 250.621 87.2662 248.436C85.4126 245.023 81.3917 243.484 77.6298 242.563C72.8709 241.404 67.9735 240.816 63.0792 240.816C61.7579 240.816 60.4365 240.859 59.1193 240.945C58.1865 241.001 57.1761 241.113 56.5135 241.765L56.4568 241.832C56.4459 238.833 56.5474 236.127 56.7834 233.768C56.8449 233.145 57.023 232.572 57.3094 232.048C59.2173 228.591 65.8933 227.265 75.0126 227.265C104.485 227.265 159.496 241.113 161.686 241.668C161.937 243.845 162.581 247.943 163.452 253.408C164.038 257.149 164.716 261.397 165.382 265.563C166.152 270.479 166.982 275.901 167.816 281.627C165.516 282.78 162.764 283.983 158.94 283.983" fill="#3757AF"/>
<path d="M172.998 401.787C172.987 401.78 172.976 401.773 172.966 401.767C172.91 397.392 172.879 393.123 172.89 389.008C172.887 393.16 172.93 397.431 172.998 401.787V401.787ZM173.923 362.029C174.458 355.223 174.406 347.133 173.959 338.409C174.031 338.404 174.103 338.397 174.174 338.392C174.524 346.684 174.511 354.741 173.923 362.029" fill="#9EACB2"/>
<path d="M172.965 401.767C164.167 396.383 147.729 382.7 150.637 361.772C153.247 342.992 165.559 339.125 173.959 338.409C174.405 347.133 174.457 355.223 173.923 362.029C173.892 362.397 173.861 362.763 173.828 363.127C173.132 370.887 172.895 379.645 172.889 389.008C172.879 393.123 172.909 397.392 172.965 401.767Z" fill="#3757AF"/>
<path d="M97.0226 402.091C97.0221 402.091 97.0216 402.091 97.0205 402.091C99.9049 390.492 102.86 377.828 104.853 361.384C102.861 377.827 99.9076 390.495 97.0226 402.091V402.091ZM104.862 361.311C104.863 361.301 104.864 361.295 104.865 361.284C104.864 361.295 104.863 361.301 104.862 361.311Z" fill="#9EACB2"/>
<path d="M97.0201 402.091C90.9019 400.209 73.3608 393.436 75.5129 369.335C77.4801 347.305 97.2987 340.469 106.79 338.179C106.373 346.692 105.704 354.327 104.864 361.284C104.863 361.295 104.862 361.301 104.861 361.311C104.858 361.336 104.856 361.36 104.852 361.384C102.86 377.828 99.9045 390.492 97.0201 402.091" fill="#3757AF"/>
<path d="M175.44 477.341C175.44 477.341 178.236 472.223 171.466 475.256C164.697 478.29 138.258 479.272 137.033 480.733C135.809 482.193 133.392 482.408 135.557 485.465C137.721 488.521 138.35 491.352 139.589 498.325C140.826 505.299 136.517 515.153 137.997 520.977C139.477 526.801 132.914 535.231 138.056 538.296C143.198 541.36 149.494 542.157 153.761 544.487C158.026 546.817 175.91 550.111 188.874 549.777C201.836 549.445 208.045 546.189 200.69 539.531C193.336 532.872 190.294 529.08 183.294 526.452C176.296 523.821 174.894 516.5 174.909 509.799C174.925 503.1 173.874 504.547 174.893 497.689C175.912 490.833 175.44 477.341 175.44 477.341" fill="#27274C"/>
<path d="M44.3655 467.569C44.3655 467.569 41.9957 463.021 50.9233 466.277C59.8504 469.533 83.8337 467.777 82.6905 471.445C81.5472 475.113 82.0644 483.323 79.6941 486.371C77.3239 489.42 80.1567 491.724 78.3411 497.549C76.525 503.375 74.9947 512.84 77.7348 517.719C80.475 522.596 89.3572 538.148 90.8728 546.196C92.3889 554.243 82.052 559.307 68.3999 548.423C54.7488 537.539 54.828 534.249 50.1592 529.48C45.4911 524.711 38.5196 522.775 38.7692 513.621C39.0192 504.465 38.7192 500.112 40.1853 494.651C41.6509 489.188 44.4249 484.847 43.3968 479.792C42.3681 474.736 44.3655 467.569 44.3655 467.569" fill="#27274C"/>
<path d="M59.8606 290.32C58.5133 273.852 56.7491 257.151 56.4893 244.603C56.5737 248.576 56.8085 252.964 57.1319 257.628C61.3945 257.609 65.7247 257.077 69.8361 255.743C72.4475 254.893 75.3595 254.512 78.4966 254.512C81.4679 254.512 84.6361 254.855 87.9346 255.469C87.3423 258.003 86.0773 260.528 84.7393 262.757C80.7523 269.417 76.0909 275.663 70.845 281.368C67.633 284.873 64.0611 288.241 59.8606 290.32" fill="#3757AF"/>
<path d="M57.132 257.628C56.8085 252.964 56.5737 248.576 56.4893 244.603C56.4694 243.655 56.4585 242.731 56.457 241.832L56.5137 241.765C57.1762 241.113 58.1866 241.001 59.1194 240.945C60.4366 240.859 61.7581 240.816 63.0794 240.816C67.9737 240.816 72.871 241.404 77.63 242.563C81.3918 243.484 85.4128 245.023 87.2664 248.436C88.4518 250.621 88.5002 253.049 87.9346 255.469C84.6361 254.855 81.468 254.512 78.4966 254.512C75.3596 254.512 72.4476 254.893 69.8361 255.743C65.7248 257.077 61.3945 257.609 57.132 257.628Z" fill="#344FAA"/>
<path d="M179.075 184.831C176.503 186.493 173.358 187.011 170.28 186.785C169.518 186.741 168.764 186.64 168.023 186.494C164.271 185.798 160.768 184.191 157.263 182.675C153.051 180.844 148.536 178.901 146.076 175.037C144.774 172.993 144.167 170.601 143.651 168.231C142.067 161.031 141.034 153.719 140.562 146.363C140.348 142.982 140.292 139.411 141.842 136.4C145.279 129.728 154.624 129.481 159.576 134.648C163.968 139.231 163.171 149.811 163.924 155.663C164.024 156.448 164.126 157.245 164.351 158.009C164.519 158.616 164.766 159.19 165.126 159.695C165.743 160.571 166.654 161.188 167.54 161.784C170.506 163.76 173.46 165.748 176.424 167.726C179.243 169.612 182.266 171.757 183.231 175.004C184.32 178.665 182.288 182.765 179.075 184.831" fill="#F359A8"/>
<path d="M179.075 184.831C176.503 186.493 173.358 187.011 170.28 186.785C168.798 179.912 166.474 173.307 164.811 166.467C164.25 164.143 163.811 161.749 164.08 159.38C164.138 158.92 164.227 158.459 164.351 158.009C164.519 158.616 164.766 159.19 165.126 159.695C165.743 160.571 166.654 161.188 167.54 161.784C170.506 163.76 173.46 165.748 176.424 167.726C179.243 169.612 182.266 171.757 183.231 175.004C184.32 178.665 182.288 182.765 179.075 184.831" fill="#EB3694"/>
<path d="M150.588 131.1C151.519 159.493 164.017 245.743 164.017 245.743C128.644 275.531 55.1968 258.332 55.1968 258.332L54.7051 166.009L67.6952 77.7388C77.4687 72.6068 125.92 77.1081 125.92 77.1081C125.92 77.1081 146.287 76.6548 153.125 85.1228C163.116 97.4921 164.552 141.34 164.552 141.34C164.552 141.34 158.036 147.856 149.657 145.064" fill="#BBD0EE"/>
<path d="M155.834 117.869L156.378 130.944C156.444 132.513 156.009 134.063 155.137 135.369L154.504 136.319C153.864 137.275 153.545 138.411 153.59 139.56C153.67 141.555 153.06 143.517 151.861 145.115L151.384 145.751" fill="#A8C6EB"/>
<path d="M46.8867 189.255C48.2815 192.601 49.9852 196.063 53.0476 198.005C55.9472 199.844 59.694 199.999 62.9852 199.019C66.2754 198.037 69.1686 196.027 71.7571 193.771C86.1467 181.229 91.7738 161.633 102.138 145.604C106.273 139.211 111.186 133.361 115.68 127.215C118.184 123.789 120.628 120.091 121.146 115.88C121.663 111.668 119.64 106.848 115.608 105.525C114.025 105.007 111.882 104.696 111.584 103.057C111.474 102.457 111.686 101.84 111.989 101.309C112.973 99.5893 114.824 98.5853 116.266 97.2253C117.709 95.8653 118.772 93.6013 117.677 91.948C116.853 90.7027 115.087 90.38 113.659 90.8107C112.23 91.2427 111.065 92.2627 109.972 93.2787C103.446 99.3413 97.456 106.787 96.3576 115.625C95.9967 118.529 96.1706 121.544 95.1815 124.297C94.3347 126.659 92.6987 128.637 91.093 130.564C83.2076 140.029 75.2738 149.544 65.9206 157.563C67.2034 151.04 67.5826 144.34 67.0435 137.715C66.7222 133.761 65.9596 129.585 63.2768 126.663C59.4123 122.455 52.3743 122.281 47.5435 125.333C38.0268 131.347 37.8691 144.429 38.3196 154.423C38.8524 166.229 42.3675 178.408 46.8867 189.255" fill="#F359A8"/>
<path d="M85.9115 75.3708C85.9115 75.3708 43.4531 73.8335 40.2979 105.659C38.4329 124.474 33.237 153.53 35.3189 158.527C35.3189 158.527 58.1313 154.994 72.0318 150.619C72.0318 150.619 72.4751 133.642 69.5798 126.947" fill="#BBD0EE"/>
<path d="M59.6104 97.1761C64.5432 104.295 69.6697 111.988 69.7734 120.648C69.7937 122.383 69.6084 124.124 69.8182 125.847C70.1464 128.552 71.425 131.04 72.1869 133.657C73.5489 138.336 73.2374 143.316 72.913 148.177C72.863 148.935 72.7983 149.733 72.3635 150.355C71.8291 151.119 70.8697 151.435 69.977 151.704" fill="#A8C6EB"/>
<path d="M148.97 24.7815C149.129 26.1535 148.962 50.7308 143.233 59.2722C137.502 67.8135 132.685 70.2242 122.404 67.4762L121.49 81.9575C121.49 81.9575 115.405 93.4082 100.961 87.3455C91.7225 83.4682 89.7031 75.2001 89.7031 75.2001L107.463 18.4655L148.97 24.7815" fill="#F359A8"/>
<path d="M93.9256 55.9615C94.1455 57.6775 103.798 56.3668 108.697 52.4961C113.594 48.6268 114.834 49.3508 114.664 46.6254C114.492 43.9001 112.058 45.3374 110.531 40.8894C109.005 36.4428 109.545 29.8788 115.288 30.8028C121.03 31.7281 120.67 36.1041 123.34 34.2055C126.01 32.3068 124.236 25.7214 126.737 24.8534C129.237 23.9868 130.897 19.6041 140.656 25.2655C150.413 30.9268 158.493 37.0721 160.218 29.5028C161.942 21.9348 153.969 21.7001 159.608 19.2415C165.248 16.7841 159.969 9.88147 149.445 10.0881C138.922 10.2948 127.451 -6.50118 109.456 2.80682C91.4611 12.1148 89.3226 19.9375 93.9256 55.9615" fill="#27274C"/>
<path d="M122.405 67.476C120.326 67.1813 115.499 66.408 110.447 62.404C105.394 58.4 111.612 68.6347 115.389 70.5667C119.165 72.4973 121.829 74.948 121.829 74.948L122.405 67.476Z" fill="#EB3694"/>
<path d="M123.715 36.5348C123.715 36.5348 120.272 27.9255 112.218 29.2828C104.163 30.6415 106.69 44.3655 117.993 50.6721C129.295 56.9801 123.715 36.5348 123.715 36.5348Z" fill="#F359A8"/>
<path d="M91.6517 67.6654C89.6308 68.0534 86.0652 72.5627 85.4147 76.3027L84.5397 81.3334C84.298 82.7227 84.748 84.1427 85.7449 85.1401L86.6121 86.0067C86.8641 86.2587 87.0876 86.536 87.2819 86.8334L95.6204 93.3894L100.433 91.7854C101.026 91.5867 101.644 91.4774 102.268 91.4574L108.221 91.2654C108.597 91.252 108.656 90.7267 108.293 90.6307C93.3465 86.6734 90.7017 76.2134 90.7017 76.2134C90.7017 76.2134 92.2799 67.544 91.6517 67.6654" fill="#A8C6EB"/>
<path d="M112.291 90.7759C112.045 91.1052 112.41 91.5413 112.779 91.3613C116.826 89.3839 120.49 86.6266 123.505 83.2799C124.522 82.1506 125.491 80.9133 125.633 79.3186C125.68 78.8013 125.525 78.2959 125.402 77.7906C124.757 75.1426 124.542 72.8253 122.301 71.2933C121.996 73.5466 122.67 79.9266 117.611 83.8106C115.301 85.5839 114.031 88.4452 112.291 90.7759" fill="#A8C6EB"/>
<path d="M233.512 152.664L227.858 119.484L164.636 145.514L165.214 159.458L233.512 152.664" fill="#575860"/>
<path d="M231.559 151.357L225.564 118.88L165.985 143.307L167.493 158.439L231.559 151.357" fill="white"/>
<path d="M222.364 158.157L233.512 152.664C233.512 152.664 212.097 138.22 210.644 139.024C209.189 139.828 147.698 167.287 147.698 167.287L172.986 181.009L222.364 158.157Z" fill="#525EB4"/>
<path d="M195.484 171.536C196.516 171.608 197.589 171.703 198.481 172.229C199.372 172.756 200.019 173.848 199.697 174.831C199.253 176.191 197.483 176.451 196.285 177.233C194.891 178.145 194.263 179.831 193.644 181.379C192.12 185.193 189.873 189.085 186.105 190.724C184.217 191.545 182.109 191.717 180.051 191.659C176.857 191.568 173.273 190.661 171.725 187.868C171.285 187.076 171.052 186.091 171.429 185.268C171.901 184.239 173.155 183.809 174.287 183.783C175.419 183.756 176.553 184.019 177.679 183.885C177.963 183.852 178.26 183.785 178.476 183.596C178.987 183.145 178.781 182.324 178.92 181.657C179.285 179.897 181.919 179.563 182.609 177.903C183.027 176.9 182.591 175.765 182.599 174.679C182.64 168.903 192.159 171.305 195.484 171.536" fill="#F359A8"/>
<path d="M402.215 392.004C402.215 392.004 404.415 383.645 398.696 378.367C392.978 373.088 304.936 358.236 304.936 358.236L286.524 390.684L402.215 392.004" fill="#3C60B5"/>
<path d="M397.734 392.204L411.653 547.888L416.125 547.489L402.206 391.804L397.734 392.204" fill="#3A4BA7"/>
<path d="M300.346 549.46L309.938 386.064L298.532 379.803L282.521 529.564L286.985 530.041L302.28 386.981L305.289 388.633L295.863 549.196L300.346 549.46" fill="#3A4BA7"/>
<path d="M402.073 435.064L402.094 435.127C402.213 435.483 402.8 437.283 403.349 439.665C403.901 442.045 404.406 445.017 404.404 447.625C404.409 449.44 404.146 451.059 403.653 452.115C403.408 452.647 403.124 453.037 402.804 453.328C402.48 453.616 402.114 453.828 401.577 453.972C401.158 454.084 400.276 454.247 399.109 454.403C394.99 454.963 387.208 455.572 377.814 456.031C368.412 456.491 357.362 456.807 346.578 456.807C336.212 456.807 326.085 456.513 317.936 455.781C313.864 455.417 310.285 454.941 307.454 454.355C306.041 454.063 304.814 453.741 303.824 453.407C302.834 453.073 302.081 452.719 301.634 452.423C299.184 450.813 297.669 448.672 296.7 446.177C295.737 443.691 295.378 440.86 295.381 438.153C295.38 435.251 295.786 432.503 296.196 430.501C296.4 429.501 296.604 428.687 296.754 428.131C296.829 427.852 296.892 427.639 296.933 427.499L296.98 427.344L296.99 427.311L296.992 427.307L292.721 425.925C292.686 426.053 290.9 431.529 290.892 438.153C290.894 441.243 291.282 444.599 292.512 447.792C293.732 450.98 295.853 454.015 299.177 456.18C300.098 456.78 301.161 457.243 302.388 457.659C304.529 458.38 307.177 458.941 310.274 459.408C319.545 460.796 332.852 461.293 346.578 461.296C359.002 461.296 371.74 460.88 381.988 460.307C387.112 460.02 391.613 459.695 395.153 459.36C396.924 459.192 398.453 459.023 399.713 458.851C400.978 458.677 401.949 458.515 402.72 458.313C403.908 458.004 404.97 457.424 405.813 456.659C407.086 455.505 407.846 454.011 408.292 452.468C408.737 450.916 408.89 449.277 408.892 447.625C408.888 444.257 408.238 440.807 407.604 438.149C406.968 435.497 406.334 433.653 406.318 433.605L402.073 435.064" fill="#3A4BA7"/>
<path d="M401.27 412.913L306.876 411.088L299.013 403.251L295.844 406.431L304.984 415.541L401.184 417.401L401.27 412.913" fill="#3A4BA7"/>
<path d="M341.324 209.409C341.324 209.409 342.912 215.5 342.119 218.943C341.324 222.385 327.964 223.884 327.964 223.884L359.875 267.801L382.101 227.416L375.993 213.981L371.511 213.381L369.392 198.819L341.324 209.409" fill="#F359A8"/>
<path d="M351.595 264.204C354.345 265.08 357.352 264.395 360.057 263.408C369.451 259.963 377.184 252.465 381.291 243.363C382.425 240.86 383.289 238.245 383.827 235.552C383.996 234.721 384.131 233.88 384.243 233.039C384.523 230.872 384.591 228.661 384.367 226.495V226.484C384.288 225.732 384.176 224.992 384.017 224.263C383.648 222.465 383.053 220.739 382.156 219.133C380.247 215.711 376.072 212.477 372.1 211.669C370.304 212.141 368.676 212.993 367.779 214.184C366.735 215.552 366.399 217.327 366.219 219.032C365.859 222.579 366.107 226.169 366.936 229.627C367.352 231.367 369.754 231.545 370.416 229.884C370.798 228.897 373.671 230.615 373.345 232.355C372.695 235.832 370.685 238.896 368.631 241.781C366.128 245.305 363.435 248.807 361.056 252.455C358.127 256.955 352.493 258.032 348.273 255.753C347.824 256.292 347.488 256.909 347.296 257.628C346.579 260.423 348.845 263.329 351.595 264.204" fill="#EC3192"/>
<path d="M339.19 207.305L364.505 206.077C364.505 206.077 369.542 212.904 362.782 219.323C356.022 225.74 339.19 207.305 339.19 207.305Z" fill="#EC3192"/>
<path d="M354.068 160.989C353.073 161.161 332.61 161.403 331.017 175.344C329.424 189.285 330.978 217.1 344.56 215.973C358.14 214.845 363.702 210.517 367.708 205.459C371.713 200.401 379.868 192.772 379.681 184.867C379.492 176.96 371.549 157.961 354.068 160.989" fill="#F359A8"/>
<path d="M353.02 173.096C354.196 174.135 355.863 174.332 357.364 174.787C361.029 175.895 364.073 178.876 365.26 182.516C366.115 180.195 369.339 179.3 371.467 180.563C373.595 181.824 374.439 184.707 373.703 187.068C372.965 189.431 370.9 191.224 368.572 192.063C367.509 192.445 366.269 192.739 365.703 193.715C365.068 194.807 365.597 196.181 366.132 197.327C367.149 199.497 368.164 201.671 369.18 203.843C369.311 204.12 369.452 204.413 369.709 204.583C370.241 204.936 370.94 204.599 371.52 204.328C373.357 203.475 375.529 203.368 377.443 204.037C378.521 204.413 379.599 205.037 380.727 204.857C382.085 204.641 383.003 203.313 383.384 201.992C383.767 200.668 383.783 199.257 384.211 197.949C385.221 194.86 388.265 192.959 390.169 190.324C393.856 185.224 392.681 177.716 388.728 172.819C387.269 171.012 385.432 169.377 384.781 167.148C383.808 163.809 385.665 159.681 383.441 157.007C381.092 154.183 376.184 155.485 373.327 153.175C371.625 151.799 370.861 149.281 368.808 148.525C365.536 147.321 362.701 151.541 359.232 151.896C355.681 152.259 352.452 148.467 349.016 149.439C346.871 150.047 345.516 152.357 343.351 152.891C341.459 153.356 339.469 152.329 337.545 152.641C334.968 153.059 333.391 155.648 332.348 158.041C329.585 164.388 328.099 171.288 328.001 178.211C327.987 179.256 328.293 180.633 329.337 180.704C329.797 180.736 330.225 180.465 330.564 180.151C332.097 178.731 332.413 176.475 332.873 174.437C333.335 172.399 334.291 170.144 336.292 169.541C337.136 169.287 338.051 169.376 338.905 169.156C341.747 168.427 343.435 164.691 346.635 165.925C349.904 167.185 350.68 171.023 353.02 173.096" fill="#525EB4"/>
<path d="M363.221 182.531C363.221 182.531 366.91 174.622 374.409 176.323C381.908 178.023 378.809 190.79 367.853 196.12C356.897 201.451 363.221 182.531 363.221 182.531Z" fill="#F359A8"/>
<path d="M276.645 353.103C273.956 353.332 271.04 353.743 269.157 355.679C267.821 357.053 267.236 358.988 266.899 360.876C266.407 363.633 266.359 366.543 267.336 369.169C268.313 371.795 270.443 374.092 273.165 374.753C274.664 375.119 276.235 374.979 277.769 374.839C283.333 374.328 288.897 373.817 294.461 373.308C297.983 372.985 301.951 372.419 304.017 369.549C307.841 364.241 302.951 356.148 297.8 353.613C292.067 350.789 282.709 352.583 276.645 353.103" fill="#F359A8"/>
<path d="M227.024 374.501C231.468 367.108 238.976 361.407 247.401 359.549C250.205 358.931 253.244 358.725 255.558 357.024C256.948 356.005 257.932 354.541 259.036 353.219C262.306 349.301 267.034 346.428 272.129 346.144C276.542 345.9 283.034 348.207 284.52 352.829C279.944 352.863 276.081 353.461 272.181 355.688C269.556 359.729 271.218 365.627 273.836 369.591C274.509 370.611 276.26 373.093 276.322 374.313C276.445 376.651 273.068 376.787 270.981 377.847C266.392 380.177 261.802 382.508 257.213 384.839C250.854 388.068 244.258 391.363 237.136 391.744C234.318 391.896 231.39 391.551 228.941 390.149C226.765 388.905 225.046 386.705 224.708 384.252C224.209 383.076 224.694 378.377 227.024 374.501" fill="#27274C"/>
<path d="M227.024 374.501C231.468 367.108 238.976 361.407 247.401 359.549C250.205 358.931 253.244 358.725 255.558 357.024C256.948 356.005 257.932 354.541 259.036 353.219C262.306 349.301 267.034 346.428 272.129 346.144C275.266 345.969 279.445 347.092 282.138 349.412C278.774 351.768 274.786 353.24 270.689 353.535C268.021 353.728 265.16 353.493 262.869 354.873C261.09 355.944 259.97 357.815 258.449 359.225C252.677 364.576 242.104 362.657 237.4 368.965C236.854 369.697 236.412 370.54 236.336 371.451C236.16 373.563 237.904 375.268 239.294 376.868C242.524 380.585 244.346 385.44 244.572 390.355C242.15 391.097 239.677 391.609 237.136 391.744C234.318 391.896 231.39 391.551 228.941 390.149C226.765 388.905 225.046 386.705 224.708 384.252C224.209 383.076 224.694 378.377 227.024 374.501" fill="white"/>
<path d="M257.103 375.647C256.955 376.272 257.343 376.897 257.967 377.045C258.592 377.192 259.219 376.805 259.365 376.181C259.513 375.556 259.127 374.929 258.501 374.783C257.876 374.633 257.249 375.021 257.103 375.647Z" fill="#BBD0EE"/>
<path d="M262.675 373.109C262.527 373.735 262.914 374.36 263.539 374.508C264.164 374.655 264.79 374.268 264.938 373.643C265.084 373.019 264.698 372.392 264.074 372.244C263.448 372.096 262.822 372.484 262.675 373.109Z" fill="#BBD0EE"/>
<path d="M268.612 369.156C267.988 369.009 267.362 369.396 267.214 370.021C267.067 370.645 267.454 371.272 268.079 371.42C268.704 371.568 269.33 371.181 269.478 370.556C269.626 369.931 269.238 369.304 268.612 369.156Z" fill="#BBD0EE"/>
<path d="M254.702 369.26C254.554 369.885 254.941 370.511 255.566 370.659C256.192 370.805 256.818 370.419 256.965 369.795C257.113 369.169 256.726 368.543 256.101 368.396C255.476 368.247 254.85 368.635 254.702 369.26Z" fill="#BBD0EE"/>
<path d="M260.273 366.723C260.127 367.348 260.513 367.973 261.139 368.121C261.764 368.268 262.389 367.881 262.537 367.256C262.684 366.632 262.297 366.005 261.673 365.857C261.048 365.709 260.421 366.097 260.273 366.723Z" fill="#BBD0EE"/>
<path d="M266.212 362.769C265.588 362.623 264.961 363.009 264.813 363.633C264.667 364.259 265.053 364.885 265.679 365.033C266.303 365.181 266.929 364.795 267.077 364.169C267.224 363.544 266.837 362.917 266.212 362.769Z" fill="#BBD0EE"/>
<path d="M361.564 482.466C361.621 484.26 361.589 486.112 360.892 487.767C359.741 490.496 357.015 492.196 354.325 493.436C351.636 494.677 348.745 495.687 346.6 497.727C344.709 499.523 343.572 501.963 341.923 503.983C340.307 505.963 338.225 507.511 336.063 508.871C327.315 514.372 306.287 515.599 303.94 510.203C300.601 502.523 307.707 499.972 313.033 494.749C318.36 489.527 324.844 485.611 330.243 480.463C331.223 479.527 332.188 478.52 332.7 477.266C333.856 474.432 332.428 471.26 330.984 468.564C330.595 467.837 330.195 467.088 330.115 466.269C329.96 464.664 331.064 463.2 332.32 462.188C336.945 458.46 343.9 458.829 349.12 461.665C354.34 464.501 358.145 469.349 361.463 474.277" fill="#27274C"/>
<path d="M310.663 496.855C314.972 499.708 318.607 503.585 321.064 508.133C328.928 505.009 337.193 501.585 342.295 494.833C344.292 492.189 345.7 489.155 347.528 486.392C349.356 483.631 351.751 481.047 354.896 480.006C356.993 479.311 359.255 479.383 361.412 479.927C361.476 480.773 361.536 481.619 361.564 482.466C361.621 484.26 361.589 486.112 360.892 487.767C359.741 490.496 357.015 492.196 354.325 493.436C351.636 494.677 348.745 495.687 346.6 497.727C344.709 499.523 343.572 501.963 341.923 503.983C340.307 505.963 338.225 507.511 336.063 508.871C327.315 514.372 306.287 515.599 303.94 510.203C301.081 503.628 305.88 500.807 310.663 496.855" fill="white"/>
<path d="M323.734 492.595C323.734 493.237 324.254 493.757 324.897 493.757C325.54 493.757 326.06 493.237 326.06 492.595C326.06 491.953 325.54 491.432 324.897 491.432C324.254 491.432 323.734 491.953 323.734 492.595Z" fill="#BBD0EE"/>
<path d="M329.207 489.312C329.207 489.955 329.727 490.475 330.37 490.475C331.011 490.475 331.532 489.955 331.532 489.312C331.532 488.671 331.011 488.149 330.37 488.149C329.727 488.149 329.207 488.671 329.207 489.312Z" fill="#BBD0EE"/>
<path d="M333.447 483.635C332.804 483.635 332.284 484.156 332.284 484.799C332.284 485.44 332.804 485.961 333.447 485.961C334.09 485.961 334.61 485.44 334.61 484.799C334.61 484.156 334.09 483.635 333.447 483.635Z" fill="#BBD0EE"/>
<path d="M278.473 377.948C272.3 386.156 271.833 397.316 277.287 406.019C279.549 409.631 281.669 412.889 282.727 414.192C299.191 434.517 320.503 452.52 327.764 477.647C328.056 478.645 328.348 479.689 329.088 480.408C329.773 481.059 330.727 481.328 331.648 481.541C342.68 484 354.912 479.992 362.353 471.473C356.741 449.869 342.736 432.172 326.339 417.009C322.961 413.889 319.448 410.792 317.057 406.875C314.667 402.947 313.523 397.953 315.263 393.699C316.732 390.096 319.841 387.74 323.365 385.877C325.407 384.777 327.596 383.856 329.684 382.96C338.841 378.975 347.517 373.88 355.452 367.797C358.1 365.765 360.849 363.297 361.231 359.985C361.647 356.395 358.964 353.027 355.676 351.523C352.399 350.02 348.651 350.009 345.047 350.155C335.777 350.547 326.541 351.883 317.54 354.137L322.467 352.533C319.639 353.353 316.788 354.184 313.949 355.08C308.965 356.472 304.061 358.133 299.269 360.076L304.936 358.236C298.584 360.727 292.557 363.847 287.317 368.2C285.969 369.312 284.691 370.535 283.489 371.849C281.753 373.744 280.057 375.841 278.473 377.948" fill="#BBD0EE"/>
<path d="M307.613 387.349C313.772 389.139 317.125 387.381 323.365 385.877C325.407 384.777 327.596 383.856 329.684 382.96C338.841 378.975 347.517 373.88 355.452 367.797C358.1 365.765 360.849 363.297 361.23 359.985C361.646 356.395 358.964 353.027 355.676 351.523C352.399 350.02 348.651 350.009 345.047 350.155C335.777 350.547 326.541 351.883 317.54 354.137L322.467 352.533C319.639 353.353 316.788 354.184 313.949 355.08C308.965 356.472 304.061 358.133 299.269 360.076L304.936 358.236C298.584 360.727 292.557 363.847 287.317 368.2C285.969 369.312 293.067 383.121 307.613 387.349" fill="#A8C6EB"/>
<path d="M271.06 316.593C269.441 319.308 267.764 322.465 268.725 325.476C269.434 327.695 271.521 329.295 273.781 329.855C276.043 330.413 278.444 330.06 280.656 329.331C286.046 327.553 290.545 323.615 293.772 318.945C296.999 314.276 299.049 308.893 300.639 303.445C301.567 300.264 302.316 296.709 300.825 293.751C297.56 287.276 287.563 288.643 283.975 293.948C279.215 300.988 275.442 309.24 271.06 316.593Z" fill="#F359A8"/>
<path d="M280.133 300.179C282.839 303.096 294.421 306.396 299.303 307.62H299.315C300.627 307.945 301.457 308.113 301.48 308.091C302.22 307.372 303.007 306.193 303.815 304.757C307.709 297.777 311.861 284.769 311.401 289.371C310.873 294.736 309.527 332.288 316.261 335.137C316.485 335.24 316.732 335.296 316.979 335.305L381.892 339.919L396.964 323.881L398.401 322.355C398.132 315.767 397.964 307.776 399.052 302.457C399.164 301.884 399.265 301.279 399.355 300.639C399.389 300.324 399.435 299.999 399.457 299.673C399.489 299.348 399.524 299.012 399.545 298.675C399.58 298.304 399.603 297.923 399.613 297.529C399.648 297.071 399.659 296.609 399.669 296.137C399.725 294.252 399.681 292.289 399.591 290.347C399.569 289.808 399.535 289.259 399.501 288.72C399.4 287.081 399.277 285.476 399.12 283.995C399.097 283.76 399.075 283.535 399.052 283.311C399.029 283.085 399.008 282.873 398.985 282.66V282.648C398.963 282.424 398.94 282.199 398.907 281.975C398.884 281.751 398.861 281.537 398.839 281.324C398.772 280.684 398.693 280.077 398.615 279.517C398.603 279.349 398.581 279.203 398.559 279.045C398.503 278.585 398.447 278.16 398.391 277.767C398.356 277.541 398.335 277.34 398.3 277.149C398.177 276.251 398.087 275.689 398.065 275.567L403.261 289.461C403.261 289.461 405.887 288.36 409.411 287.137C415.843 284.893 425.259 282.211 427.188 284.915C427.861 282.435 428.389 279.921 428.793 277.384C430.331 267.812 430.017 257.936 427.873 248.475C427.795 247.959 427.693 247.441 427.536 246.948C427.503 246.825 427.457 246.712 427.424 246.6C427.053 245.175 426.672 243.761 426.223 242.357L421.263 236.892C421.296 237.273 421.341 237.656 421.375 238.037C415.023 232.639 405.427 229.597 397.751 226.792C394.788 225.715 392.105 224.66 390.017 223.537C389.524 223.268 389.019 223.009 388.536 222.763C384.204 220.54 380.187 219.059 377.145 218.093C377.303 220.608 377.796 223.121 378.009 225.613C378.177 227.375 378.188 229.115 377.864 230.855C377.212 234.333 375.204 237.397 373.149 240.281C370.647 243.805 367.953 247.307 365.575 250.955C362.645 255.455 357.012 256.532 352.792 254.255C351.309 253.468 349.997 252.245 349.043 250.607C347.056 247.207 345.227 243.716 343.633 240.113C341.268 234.725 339.468 229.008 338.628 223.188C338.287 220.825 335.856 219.38 333.624 220.227C322.156 224.573 306.883 230.693 302.737 233.963C295.869 239.384 282.043 294.544 279.708 298.451C279.381 299 279.561 299.573 280.133 300.179" fill="#F89B1C"/>
<path d="M311.402 289.371C310.874 294.736 309.527 332.288 316.262 335.137C318.023 331.176 319.202 326.967 320.268 322.759C321.85 316.529 323.219 310.212 323.578 303.793C324.106 294.208 322.366 284.645 320.615 275.208C320.212 272.985 319.616 270.493 317.664 269.372C316.575 268.732 315.218 268.664 313.971 268.911C308.752 269.921 305.79 275.477 304.443 280.628C302.278 288.844 303.332 296.553 303.815 304.757C307.71 297.777 311.862 284.769 311.402 289.371" fill="#F57D20"/>
<path d="M385.237 240.237C389.77 252.447 390.804 265.633 391.601 278.631C392.341 290.729 392.464 302.883 393.306 314.969C393.632 319.583 395.136 322.635 396.964 323.881L398.401 322.355C398.132 315.767 397.964 307.776 399.052 302.457C400.904 293.355 398.188 276.352 398.065 275.567L403.261 289.461C403.261 289.461 405.886 288.36 409.41 287.137C409.557 286.205 409.702 285.263 409.86 284.332C410.477 280.483 411.094 276.532 410.264 272.727C409.064 267.16 404.978 262.749 402.273 257.744C398.536 250.82 397.469 242.807 394.798 235.4C392.128 228.004 386.976 220.596 379.266 219.025C378.929 226.421 382.666 233.289 385.237 240.237" fill="#F57D20"/>
<path d="M371.455 228.128C371.871 229.867 374.272 230.047 374.935 228.385C375.316 227.397 375.766 226.455 376.628 225.961C377.044 225.715 377.527 225.624 378.01 225.613C378.347 225.591 378.683 225.624 379.008 225.669C379.346 225.715 379.682 225.781 380.007 225.872C381.612 226.253 383.104 227.049 384.339 228.172C386.191 229.855 387.436 231.876 388.346 234.052C389.222 236.185 389.783 238.452 390.254 240.719C392.88 253.412 393.172 266.667 397.515 278.888C397.964 280.157 398.458 281.413 398.986 282.648V282.66C401.511 288.585 404.822 294.187 408.12 299.741C410.219 303.288 412.891 307.204 416.976 307.687C419.254 307.956 421.544 307.036 423.43 305.723C429.119 301.739 431.688 294.308 431.218 287.384C430.982 283.928 430.096 280.595 428.794 277.384C427.48 274.152 425.752 271.055 423.855 268.125C420.084 262.289 415.618 256.925 411.959 251.021C407.47 243.761 403.62 236.04 398.874 228.924C398.447 228.296 398.087 227.577 397.751 226.792C396.224 223.312 395.282 218.733 392.69 216.545C389.48 213.84 386.719 212.056 382.835 210.351C381.186 209.632 378.784 209.62 376.618 210.171C374.823 210.641 373.195 211.495 372.296 212.684C371.254 214.053 370.916 215.827 370.738 217.532C370.378 221.079 370.626 224.671 371.455 228.128" fill="#F359A8"/>
<path d="M443.196 324.168C443.279 331.173 439.847 337.8 435.431 343.239C431.014 348.677 425.596 353.203 420.76 358.272C415.239 364.06 410.414 370.615 403.98 375.367C391.432 384.639 373.244 385.487 359.888 377.423C356.596 375.436 353.514 372.867 351.768 369.44C347.519 361.101 352.735 350.592 360.379 345.196C368.024 339.799 377.515 337.931 386.358 334.872C399.171 330.441 410.842 323.373 422.038 315.84C426.784 312.645 431.15 306.907 436.591 310.463C440.864 313.255 443.138 319.264 443.196 324.168" fill="#96C0E9"/>
<path d="M432.473 307.375C423.925 305.463 415.317 309.548 407.397 313.291C369.695 331.103 328.379 341.321 287.208 347.941C291.628 360.823 290.404 368.835 300.411 378.072C318.016 379.764 342.667 379.203 356.699 372.367C365.775 367.945 374.177 362.152 383.537 358.371C392.107 354.909 401.277 353.213 410.057 350.325C418.837 347.437 427.549 343.085 433.091 335.688C438.632 328.292 438.017 314.769 432.473 307.375" fill="#BBD0EE"/>
<path d="M242.804 312.955L298.242 329.536L268.597 338.413L254.193 330.207L242.804 312.955" fill="#EDEBEA"/>
<path d="M240.459 307.092L292.235 323.84L263.511 334.195L240.459 307.092Z" fill="#EDEBEA"/>
<path d="M308.694 322.177L309.288 327.531C309.288 327.531 288.268 328.324 279.94 331.299C271.612 334.273 266.06 338.635 266.06 338.635L259.912 336.057L256.542 332.488C256.542 332.488 255.154 322.375 248.411 321.78C241.67 321.185 236.514 306.709 236.514 306.709H241.272C241.272 306.709 244.247 311.865 247.222 314.443C250.196 317.021 255.947 318.608 258.723 323.763C261.499 328.919 263.482 331.299 263.482 331.299L266.852 332.687C266.852 332.687 272.603 326.739 282.915 324.953C293.226 323.168 308.694 322.177 308.694 322.177Z" fill="white"/>
<path d="M234.133 305.719L231.158 306.115L259.317 338.04L262.688 337.644L234.133 305.719Z" fill="#F04128"/>
<path d="M309.964 322.927L266.06 338.635L288.665 348.153L353.309 335.067L309.964 322.927Z" fill="#F04128"/>
<path d="M257.207 335.676C256.151 334.519 257.314 332.123 258.716 332.017C260.119 331.911 261.33 333.149 262.38 334.315C264.162 336.289 265.943 338.264 267.724 340.24C268.246 340.817 268.794 341.413 269.467 341.64C270.146 341.868 270.864 341.689 271.552 341.519C277.07 340.136 282.646 339.137 288.25 338.52C291.286 338.185 294.514 338.009 297.196 339.812C296.631 342.505 294.935 344.66 292.978 345.996C291.019 347.331 288.804 347.948 286.611 348.46C280.976 349.773 275.251 350.488 269.519 350.593C267.908 350.624 266.243 350.591 264.775 349.765C263.134 348.841 261.931 347.028 260.911 345.177L257.207 335.676Z" fill="#F359A8"/>
<path d="M349.198 554.902C294.336 554.902 249.864 546.816 249.864 536.842C249.864 531.476 262.743 526.654 283.186 523.347L282.522 529.564L286.986 530.041L287.776 522.648C290.874 522.204 294.115 521.794 297.494 521.418L295.863 549.196L300.346 549.46L302.019 520.945C316.052 519.565 332.123 518.783 349.198 518.783C371.823 518.783 392.68 520.157 409.382 522.473L411.654 547.888L416.126 547.489L413.948 523.147C435.122 526.459 448.531 531.365 448.531 536.842C448.531 546.816 404.058 554.902 349.198 554.902Z" fill="#C4D6F0"/>
<path d="M411.654 547.888L409.382 522.473C410.942 522.689 412.463 522.914 413.949 523.147L416.126 547.489L411.654 547.888" fill="#3A50AA"/>
<path d="M300.346 549.46L295.863 549.196L297.493 521.418C298.977 521.253 300.485 521.096 302.019 520.945L300.346 549.46ZM286.985 530.041L282.521 529.564L283.185 523.347C284.677 523.105 286.207 522.872 287.776 522.648L286.985 530.041Z" fill="#3A50AA"/>
<path d="M611.197 346.661C542.713 346.661 487.197 334.708 487.197 319.964C487.197 312.237 502.439 305.279 526.808 300.404C529.287 301.804 531.763 302.972 534.121 303.856C541.403 306.587 548.293 308.749 554.824 310.416C552.292 311.58 550.833 314.563 549.948 317.317C548.257 322.584 547.429 328.127 547.507 333.657C547.516 334.276 547.541 334.916 547.819 335.469C548.199 336.233 548.997 336.703 549.808 336.971C550.551 337.217 551.345 337.328 552.167 337.328C555.633 337.328 559.588 335.368 562.269 333.439C564.319 331.965 566.216 330.955 568.209 330.235C568.291 330.381 568.392 330.515 568.524 330.623C568.853 330.892 569.304 330.941 569.728 330.973C570.684 331.045 571.643 331.081 572.6 331.081C575.229 331.081 577.857 330.812 580.431 330.276C581.117 331.833 581.861 332.969 582.657 333.412C582.781 333.481 583.001 333.515 583.308 333.515C591.793 333.517 667.671 307.612 691.088 299.547C718.061 304.444 735.197 311.773 735.197 319.964C735.197 334.708 679.68 346.661 611.197 346.661" fill="#C6CFCE"/>
<path d="M634.881 106.711C631.001 95.4787 627.724 82.864 628.277 71.944V71.94C628.56 67.4427 628.603 63.4827 628.831 61.0227C630.036 48.0094 620.552 42.904 617.137 42.58C613.723 42.2547 610.689 39.8427 599.339 40.2374C588.475 40.6134 581.022 48.356 578.963 59.0747C577.3 67.728 578.349 72.8907 579.959 80.368C580.045 82.5773 580.137 91.352 576.536 97.5054C572.387 104.595 566.728 105.844 566.491 122.755C566.256 139.667 634.881 128.56 634.881 128.56C634.881 128.56 638.763 117.943 634.881 106.711" fill="#F04128"/>
<path d="M569.098 315.8C568.356 316.695 567.987 317.84 567.728 318.972C566.936 322.433 567.011 326.088 567.943 329.515C568.055 329.923 568.195 330.355 568.524 330.623C568.854 330.892 569.304 330.941 569.728 330.973C574.128 331.305 578.586 330.871 582.838 329.692C583.208 329.591 583.598 329.469 583.848 329.18C584.14 328.843 584.176 328.36 584.199 327.913C584.336 325.085 584.475 322.256 584.611 319.428C584.648 318.698 584.682 317.953 584.492 317.247C583.163 312.279 571.807 312.529 569.098 315.8" fill="#F78FC5"/>
<path d="M562.27 333.439C558.952 335.825 553.687 338.259 549.808 336.971C548.998 336.703 548.199 336.233 547.819 335.469C547.542 334.916 547.516 334.276 547.507 333.657C547.43 328.127 548.258 322.584 549.948 317.317C550.948 314.204 552.68 310.801 555.867 310.06C559.006 309.329 563.486 310.072 566.231 311.759C569.567 313.808 576.32 313.503 580.471 313.197C582.412 313.053 583.784 312.911 583.972 313.009C585.36 313.735 585.742 321.259 585.166 322.715C583.6 326.684 578.712 328.271 574.844 328.757C569.912 329.379 566.399 330.469 562.27 333.439Z" fill="#C47C25"/>
<path d="M557.886 309.809C557.178 309.843 556.491 309.913 555.867 310.06C552.68 310.801 550.948 314.204 549.948 317.317C548.258 322.584 547.43 328.127 547.507 333.657C547.516 334.276 547.543 334.916 547.819 335.469C548.199 336.233 548.998 336.703 549.808 336.971C552.199 337.764 555.114 337.143 557.778 335.992C558.996 332.728 559.88 329.355 560.262 325.891C560.86 320.445 560.151 314.76 557.886 309.809Z" fill="#F89B1C"/>
<path d="M586.733 115.691C601.572 115.316 616.501 114.947 631.177 117.171C636.128 117.921 641.188 119.031 645.283 121.911C652.944 127.299 655.412 137.404 656.788 146.668C657.752 153.155 658.46 159.677 659.167 166.197C659.517 169.425 659.864 172.723 659.153 175.891C658.231 179.997 655.624 183.5 652.949 186.749C644.604 196.892 634.721 206.103 622.768 211.544C610.815 216.987 596.549 218.296 584.567 212.919C580.38 211.041 576.579 208.419 572.821 205.789C568.228 202.575 563.556 199.22 560.437 194.563C558.231 191.265 556.907 187.461 555.807 183.648C552.023 170.543 550.705 156.461 553.352 143.007C554.987 134.697 553.816 126.279 561.927 122.029C568.683 118.489 579.239 115.88 586.733 115.691" fill="#BBD0EE"/>
<path d="M594.651 101.621L592.404 122.636C592.404 122.636 604.682 128.612 615.998 122.636L613.752 97.14L594.651 101.621" fill="#F78FC5"/>
<path d="M594.651 101.621L594.12 107.725C596.535 108.885 599.745 109.827 602.301 108.035C605.688 105.659 609.319 103.532 614.332 104.996L613.752 97.1401L594.651 101.621" fill="#E1347F"/>
<path d="M603.871 104.271C593.636 104.271 585.263 95.8974 585.263 85.6628V66.5668C585.263 56.3334 593.636 47.9601 603.871 47.9601C614.103 47.9601 622.477 56.3334 622.477 66.5668V85.6628C622.477 95.8974 614.103 104.271 603.871 104.271" fill="#F78FC5"/>
<path d="M588.691 76.1148C588.691 76.1148 582.815 69.9948 576.448 73.9121C570.084 77.8281 576.939 88.6014 588.691 90.0708C600.443 91.5401 588.691 76.1148 588.691 76.1148Z" fill="#F78FC5"/>
<path d="M619.712 76.1148C619.712 76.1148 625.588 69.9948 631.954 73.9121C638.319 77.8281 631.463 88.6014 619.712 90.0708C607.96 91.5401 619.712 76.1148 619.712 76.1148Z" fill="#F78FC5"/>
<path d="M583.966 63.9468C584.102 63.9468 596.896 64.8202 604.849 58.4562C606.821 56.8788 609.753 57.4855 611.077 59.6335C613.968 64.3188 618.761 70.4562 623.553 69.3802C631.16 67.6722 619.208 40.5082 598.097 46.4068C576.986 52.3042 583.966 63.9468 583.966 63.9468Z" fill="#F04128"/>
<path d="M664.455 135.052C659.861 127.595 649.648 122.828 639.664 119.828C640.4 120.508 640.807 121.496 640.741 122.525L637.655 170.671C643.515 180.647 649.239 191.629 648.415 196.119C647.601 200.541 640.632 211.415 634.468 220.383C629.339 227.844 624.767 233.988 624.767 233.988C632.704 239.941 635.845 248.396 635.845 248.396C635.845 248.396 641.179 245.527 648.343 240.945C656.476 235.745 666.971 228.34 674.708 220.428C689.26 205.545 674.873 151.965 664.455 135.052" fill="#BBD0EE"/>
<path d="M579.677 234.985C579.677 234.985 573.554 229.103 570.393 226.051L570.448 226.072L567.921 223.648L567.929 223.672C566.249 222.049 564.593 220.445 562.988 218.887C558.446 214.48 554.332 210.456 551.442 207.567C551.442 207.567 549.716 204.351 552.952 198.511C554.805 195.165 558.666 189.128 563.326 184.112C564.712 153.043 560.665 129.989 561.677 122.201C550.206 127.755 547.581 131.896 545.154 135.052C542.388 138.649 511.953 198.511 522.266 216.117C528.164 226.188 535.21 236.175 546.981 244.951C555.789 251.519 567.24 251.309 582.86 256.047C582.86 256.047 585.99 243.721 594.12 242.715C594.12 242.715 587.733 242.721 579.677 234.985Z" fill="#BBD0EE"/>
<path d="M522.52 189.963C519.817 200.821 519.016 210.569 522.267 216.117C525.341 221.368 528.749 226.591 532.953 231.635C545.941 215.683 529.045 196.405 522.52 189.963Z" fill="#A8C6EB"/>
<path d="M680.136 186.604C672.834 191.241 660.434 203.04 667.022 227.439C669.738 225.177 672.357 222.832 674.708 220.428C680.844 214.152 681.822 200.991 680.136 186.604Z" fill="#A8C6EB"/>
<path d="M652.001 187.739C651.786 181.391 645.976 179.104 644.469 170.671C643.497 165.233 640.405 161.879 638.326 160.176L637.654 170.671C643.514 180.647 649.238 191.629 648.414 196.119C648.414 196.119 652.216 194.084 652.001 187.739" fill="#A8C6EB"/>
<path d="M552.952 198.511C554.805 195.165 558.667 189.128 563.327 184.112C563.661 176.616 563.675 169.599 563.524 163.136C560.709 166.579 557.337 172.065 555.379 179.669C551.72 193.873 546.124 194.519 546.987 198.823C547.668 202.24 547.688 204.031 551.105 206.453C550.844 205.052 550.823 202.355 552.952 198.511" fill="#A8C6EB"/>
<path d="M588.961 119.408C588.851 119.785 588.733 120.189 588.853 120.565C588.98 120.963 589.341 121.229 589.691 121.46C596.604 126.013 605.491 125.84 613.763 125.505C615.024 125.455 616.488 125.292 617.156 124.221C617.515 123.648 617.549 122.937 617.575 122.263C617.72 118.376 617.867 114.491 618.012 110.604C618.043 109.787 618.059 108.912 617.619 108.223C616.853 107.023 615.049 106.971 613.772 107.6C612.496 108.229 611.536 109.344 610.383 110.179C608.573 111.489 605.989 112.041 604.116 110.825C602.983 110.088 602.272 108.823 601.143 108.079C599.335 106.889 597.417 107.493 595.439 107.336C594.08 107.228 592.223 105.945 591.243 106.492C589.236 107.608 589.623 117.151 588.961 119.408" fill="#A8C6EB"/>
<path d="M663.748 182.457L650.562 170.261C650.562 170.261 619.577 169.932 601.777 184.105C601.777 184.105 590.534 172.427 571.981 172.427C553.426 172.427 553.426 172.427 553.426 172.427L542.02 180.335L542.628 190.828L659.604 200.257L663.748 182.457" fill="white"/>
<path d="M542.02 180.335L542.628 190.828H590.706L588.658 187.88C588.658 187.88 592.605 181.679 542.02 180.335" fill="#DFDCDA"/>
<path d="M597.6 248.729L596.477 248.692L540.489 246.631L539.307 230.576L537.928 211.763L535.817 183.129L542.185 183.336L584.728 184.751H584.74L593.828 185.056L594.415 194.999L597.6 248.729" fill="#525EB4"/>
<path d="M668.628 244.703L612.274 252.608L610.493 196.293L610.3 190.327L663.748 182.469L666.322 182.092L666.993 200.257L667.664 218.692L668.628 244.703Z" fill="#525EB4"/>
<path d="M593.826 185.06C601.948 191.663 610.302 190.332 610.302 190.332L612.278 252.607C600.683 253.791 596.482 248.731 596.482 248.731L593.826 185.06" fill="#414EAA"/>
<path d="M669.535 224.497C669.595 226.143 668.887 227.743 667.573 228.733C666.947 229.205 666.319 229.823 665.695 230.636C661.767 235.736 650.42 225.365 646.199 221.963C641.989 218.545 648.029 212.445 653.3 209.553C653.971 209.188 654.617 208.896 655.215 208.676C657.753 207.712 659.741 207.932 661.767 208.408C663.011 208.7 664.279 209.103 665.695 209.383L665.984 209.437C667.744 209.733 669.049 211.212 669.115 212.996L669.535 224.497" fill="#F78FC5"/>
<path d="M562.219 235.056C558.01 238.472 546.652 248.843 542.723 243.743C541.835 242.591 540.939 241.829 540.055 241.319C538.672 240.519 537.836 239.024 537.703 237.433C537.451 234.456 537.079 229.863 536.84 226.189C536.704 224.08 538.504 222.4 540.606 222.612C541.23 222.675 541.935 222.649 542.723 222.489C546.956 221.636 549.848 219.757 555.119 222.648C560.388 225.552 566.428 231.64 562.219 235.056" fill="#F78FC5"/>
<path d="M712.616 264.46C711.483 261.525 710.072 258.612 707.815 256.42C702.688 251.441 694.661 251.352 687.543 251.96C678.136 252.761 668.796 254.229 659.535 256.057C656.085 256.737 652.579 257.471 649.081 257.113C646.86 256.885 646.416 247.504 646.416 247.504L556.784 251.855C556.784 251.855 557.497 254.96 556.784 255.547C551.133 260.191 542.412 252.812 535.192 251.631C530.167 250.808 525.055 250.041 520.001 250.667C514.948 251.293 509.88 253.491 506.853 257.584C503.825 261.676 502.915 268.884 503.839 273.889C506.236 286.852 521.779 299.228 534.121 303.856C623.955 337.544 654.688 284.757 676.092 283.392C686.657 282.719 697.604 282.283 707.089 277.577C710.031 276.119 713.013 273.932 713.649 270.712C714.064 268.611 713.388 266.457 712.616 264.46" fill="#303369"/>
<path d="M561.581 257.803C561.977 257.712 562.371 257.625 562.767 257.544L562.644 256.947C562.243 257.029 561.844 257.116 561.445 257.208L561.581 257.803" fill="#F89B1C"/>
<path d="M565.188 257.096C565.998 256.964 566.812 256.848 567.625 256.748L567.55 256.143C566.729 256.244 565.908 256.361 565.089 256.495L565.188 257.096ZM570.076 256.492C570.894 256.42 571.714 256.363 572.536 256.317L572.502 255.708C571.674 255.753 570.849 255.812 570.024 255.884L570.076 256.492ZM575 256.219C575.821 256.197 576.644 256.187 577.468 256.185L577.466 255.575C576.638 255.576 575.81 255.587 574.984 255.609L575 256.219ZM579.936 256.208C580.757 256.224 581.58 256.248 582.404 256.279L582.426 255.669C581.6 255.639 580.773 255.615 579.948 255.599L579.936 256.208ZM584.873 256.388C585.694 256.429 586.517 256.477 587.34 256.528L587.378 255.919C586.553 255.868 585.728 255.821 584.904 255.779L584.873 256.388ZM589.808 256.688C590.63 256.745 591.453 256.804 592.276 256.863L592.32 256.255C591.496 256.195 590.673 256.136 589.849 256.08L589.808 256.688ZM594.745 257.041C595.568 257.101 596.392 257.16 597.214 257.217L597.257 256.609C596.434 256.552 595.612 256.493 594.789 256.433L594.745 257.041ZM599.686 257.381C600.512 257.433 601.336 257.481 602.161 257.525L602.193 256.916C601.37 256.872 600.548 256.824 599.725 256.772L599.686 257.381ZM604.638 257.64C605.465 257.672 606.29 257.699 607.117 257.717L607.13 257.108C606.309 257.089 605.485 257.063 604.662 257.031L604.638 257.64ZM609.598 257.749H609.856C610.598 257.749 611.34 257.741 612.081 257.725L612.068 257.116C611.332 257.132 610.594 257.139 609.856 257.139H609.6L609.598 257.749ZM614.562 257.639C615.39 257.599 616.216 257.545 617.042 257.48L616.993 256.872C616.174 256.937 615.354 256.989 614.533 257.029L614.562 257.639ZM619.516 257.24C619.657 257.224 619.798 257.207 619.94 257.189C620.617 257.108 621.297 257.016 621.978 256.917L621.892 256.313C621.214 256.412 620.538 256.503 619.866 256.584C619.726 256.601 619.586 256.617 619.446 256.633L619.516 257.24ZM624.43 256.545C625.245 256.417 626.06 256.287 626.874 256.159L626.781 255.556C625.964 255.684 625.149 255.815 624.336 255.943L624.43 256.545ZM629.318 255.796C630.136 255.683 630.952 255.579 631.765 255.491L631.701 254.885C630.88 254.973 630.057 255.077 629.234 255.192L629.318 255.796ZM634.218 255.284C634.972 255.239 635.722 255.213 636.469 255.213L636.672 255.215L636.676 254.604H636.469C635.709 254.604 634.946 254.629 634.182 254.675L634.218 255.284ZM639.118 255.329C639.932 255.403 640.738 255.513 641.537 255.671L641.654 255.072C640.833 254.911 640.005 254.796 639.173 254.721L639.118 255.329" fill="#F89B1C"/>
<path d="M643.915 256.281C644.294 256.404 644.671 256.539 645.047 256.687L645.27 256.119C644.883 255.967 644.494 255.828 644.102 255.701L643.915 256.281" fill="#F89B1C"/>
<path d="M603.703 257.9C603.748 258.711 603.791 259.523 603.831 260.335L604.439 260.304C604.4 259.492 604.358 258.679 604.312 257.865L603.703 257.9ZM603.938 262.769C603.97 263.581 603.998 264.393 604.023 265.205L604.632 265.187C604.608 264.372 604.579 263.559 604.547 262.745L603.938 262.769ZM604.088 267.641C604.107 268.453 604.122 269.267 604.132 270.079L604.743 270.071C604.731 269.256 604.716 268.441 604.698 267.628L604.088 267.641ZM604.156 272.516C604.159 273.029 604.16 273.543 604.16 274.056C604.16 274.355 604.16 274.655 604.159 274.953L604.77 274.955C604.77 274.656 604.771 274.356 604.771 274.056C604.771 273.541 604.77 273.027 604.767 272.512L604.156 272.516ZM604.142 277.391C604.131 278.203 604.119 279.016 604.102 279.828L604.712 279.84C604.728 279.027 604.742 278.212 604.751 277.397L604.142 277.391ZM604.043 282.264C604.019 283.076 603.992 283.888 603.962 284.7L604.571 284.723C604.602 283.909 604.628 283.096 604.652 282.283L604.043 282.264Z" fill="#F89B1C"/>
<path d="M707.82 256.712C699.485 248.988 680.342 255.925 670.053 260.753C660.345 265.309 650.985 270.564 641.633 275.815L575.6 308.943C575.6 308.943 578.422 331.059 582.657 333.412C586.892 335.764 697.938 297.18 697.938 297.18C697.938 297.18 734.012 280.987 707.82 256.712Z" fill="#313B8C"/>
<path d="M583.806 331.117C584.584 330.873 585.363 330.628 586.139 330.384L585.956 329.801C585.179 330.047 584.402 330.291 583.623 330.536L583.806 331.117ZM588.472 329.649C589.251 329.405 590.028 329.16 590.806 328.916L590.622 328.333C589.846 328.579 589.068 328.823 588.29 329.068L588.472 329.649ZM593.138 328.181C593.916 327.936 594.694 327.691 595.47 327.445L595.287 326.864C594.51 327.109 593.732 327.353 592.955 327.599L593.138 328.181ZM597.802 326.711C598.579 326.464 599.356 326.219 600.132 325.973L599.95 325.392C599.172 325.637 598.396 325.883 597.618 326.128L597.802 326.711ZM602.463 325.236C603.24 324.989 604.018 324.744 604.794 324.497L604.608 323.916C603.834 324.163 603.056 324.408 602.279 324.655L602.463 325.236V325.236ZM607.123 323.759C607.9 323.511 608.676 323.264 609.451 323.017L609.267 322.436C608.491 322.683 607.715 322.929 606.938 323.177L607.123 323.759ZM611.779 322.275C612.556 322.027 613.332 321.779 614.107 321.531L613.92 320.951C613.146 321.197 612.371 321.447 611.594 321.693L611.779 322.275V322.275ZM616.434 320.785C617.21 320.536 617.984 320.287 618.759 320.039L618.572 319.457C617.798 319.707 617.023 319.956 616.247 320.204L616.434 320.785ZM621.083 319.289C621.859 319.039 622.634 318.788 623.407 318.537L623.219 317.957C622.446 318.208 621.671 318.459 620.896 318.708L621.083 319.289V319.289ZM625.73 317.784C626.504 317.532 627.279 317.28 628.052 317.028L627.863 316.448C627.09 316.7 626.316 316.952 625.542 317.204L625.73 317.784ZM630.372 316.269C631.146 316.016 631.919 315.763 632.692 315.508L632.502 314.928C631.73 315.183 630.956 315.436 630.183 315.689L630.372 316.269V316.269ZM635.011 314.744C635.783 314.489 636.555 314.233 637.327 313.977L637.136 313.399C636.364 313.655 635.592 313.909 634.819 314.165L635.011 314.744V314.744ZM639.643 313.208C640.415 312.951 641.187 312.693 641.958 312.435L641.764 311.856C640.994 312.115 640.222 312.372 639.451 312.629L639.643 313.208V313.208ZM644.271 311.659C645.042 311.4 645.812 311.14 646.583 310.88L646.387 310.301C645.618 310.561 644.847 310.821 644.076 311.081L644.271 311.659V311.659ZM648.894 310.096C649.663 309.835 650.432 309.573 651.202 309.309L651.004 308.732C650.235 308.996 649.467 309.257 648.698 309.519L648.894 310.096V310.096ZM653.51 308.52C654.278 308.256 655.047 307.991 655.815 307.725L655.616 307.149C654.847 307.415 654.079 307.679 653.311 307.943L653.51 308.52V308.52ZM658.119 306.928C658.887 306.661 659.654 306.393 660.422 306.125L660.22 305.549C659.454 305.817 658.686 306.085 657.919 306.352L658.119 306.928ZM662.722 305.32C663.488 305.049 664.254 304.78 665.02 304.509L664.818 303.933C664.051 304.204 663.286 304.475 662.519 304.744L662.722 305.32ZM667.318 303.693C668.083 303.421 668.847 303.148 669.612 302.875L669.407 302.3C668.642 302.575 667.878 302.847 667.114 303.119L667.318 303.693ZM671.906 302.051C672.67 301.775 673.434 301.499 674.198 301.221L673.988 300.648C673.226 300.925 672.462 301.201 671.699 301.476L671.906 302.051ZM676.487 300.388C677.248 300.111 678.011 299.831 678.774 299.551L678.563 298.977C677.8 299.259 677.039 299.537 676.278 299.816L676.487 300.388V300.388ZM681.059 298.708C681.819 298.425 682.58 298.143 683.342 297.86L683.128 297.288C682.367 297.572 681.607 297.853 680.847 298.136L681.059 298.708ZM685.622 297.007C686.382 296.721 687.14 296.435 687.9 296.148L687.686 295.577C686.926 295.864 686.167 296.151 685.408 296.435L685.622 297.007V297.007ZM690.178 295.284C690.935 294.996 691.692 294.707 692.451 294.416L692.232 293.847C691.475 294.137 690.716 294.427 689.96 294.715L690.178 295.284ZM694.724 293.541C695.482 293.249 696.239 292.955 696.998 292.66L696.778 292.092C696.019 292.387 695.262 292.68 694.504 292.972L694.724 293.541V293.541ZM699.272 291.772C700.028 291.475 700.787 291.172 701.54 290.859L701.307 290.295C700.558 290.607 699.804 290.907 699.048 291.204L699.272 291.772V291.772ZM703.787 289.876C704.532 289.532 705.267 289.171 705.988 288.783L705.7 288.245C704.991 288.627 704.267 288.983 703.531 289.323L703.787 289.876ZM708.114 287.536C708.567 287.243 709.014 286.936 709.45 286.613C709.676 286.447 709.9 286.273 710.122 286.097L709.74 285.621C709.526 285.793 709.307 285.96 709.087 286.123C708.662 286.437 708.227 286.737 707.783 287.023L708.114 287.536V287.536ZM711.958 284.435C712.535 283.843 713.076 283.213 713.568 282.549L713.078 282.187C712.604 282.827 712.082 283.435 711.52 284.009L711.958 284.435V284.435ZM714.89 280.444C715.274 279.707 715.594 278.937 715.838 278.14L715.254 277.961C715.022 278.72 714.716 279.456 714.348 280.163L714.89 280.444Z" fill="#F89B1C"/>
<path d="M575.644 308.92C575.614 308.7 575.6 308.581 575.6 308.581L628.278 282.153C628.366 282.229 628.454 282.307 628.541 282.383L575.644 308.92Z" fill="#303369"/>
<path d="M583.308 333.153C583.001 333.152 582.781 333.119 582.657 333.049C578.732 330.869 576.02 311.711 575.644 308.92L628.541 282.383C631.574 285.033 634.608 287.683 637.641 290.333C640.221 292.588 642.877 294.891 646.085 296.095C648.326 296.936 650.736 297.2 653.14 297.2C653.689 297.2 654.238 297.187 654.785 297.163C663.974 296.76 672.825 293.66 681.94 292.415C684.102 292.12 686.325 291.951 688.548 291.951C690.905 291.951 693.261 292.14 695.541 292.571C695.196 292.705 694.849 292.839 694.504 292.972L694.724 293.541C695.362 293.295 696.001 293.047 696.641 292.799C698.513 293.221 700.325 293.817 702.033 294.612C699.64 296.055 697.938 296.817 697.938 296.817C697.938 296.817 593.357 333.156 583.308 333.153V333.153ZM585.956 329.801C585.178 330.047 584.401 330.291 583.622 330.536L583.805 331.117C584.584 330.873 585.362 330.628 586.138 330.384L585.956 329.801ZM590.621 328.333C589.845 328.579 589.068 328.823 588.289 329.068L588.472 329.649C589.25 329.405 590.028 329.16 590.805 328.916L590.621 328.333ZM593.137 328.181C593.916 327.936 594.693 327.691 595.469 327.445L595.286 326.864C594.509 327.109 593.732 327.353 592.954 327.599L593.137 328.181ZM599.949 325.392C599.172 325.637 598.396 325.883 597.617 326.128L597.801 326.711C598.578 326.464 599.356 326.219 600.132 325.973L599.949 325.392ZM604.608 323.916C603.833 324.163 603.056 324.408 602.278 324.655L602.462 325.236C603.24 324.989 604.017 324.744 604.793 324.497L604.608 323.916V323.916ZM609.266 322.436C608.49 322.683 607.714 322.929 606.937 323.177L607.122 323.759C607.9 323.511 608.676 323.264 609.45 323.017L609.266 322.436ZM613.92 320.951C613.145 321.197 612.37 321.447 611.593 321.693L611.778 322.275C612.556 322.027 613.332 321.779 614.106 321.531L613.92 320.951V320.951ZM618.572 319.457C617.797 319.707 617.022 319.956 616.246 320.204L616.433 320.785C617.209 320.536 617.984 320.287 618.758 320.039L618.572 319.457ZM623.218 317.957C622.445 318.208 621.67 318.459 620.896 318.708L621.082 319.289C621.858 319.039 622.633 318.788 623.406 318.537L623.218 317.957V317.957ZM627.862 316.448C627.089 316.7 626.316 316.952 625.541 317.204L625.729 317.784C626.504 317.532 627.278 317.28 628.052 317.028L627.862 316.448ZM632.501 314.928C631.729 315.183 630.956 315.436 630.182 315.689L630.372 316.269C631.145 316.016 631.918 315.763 632.692 315.508L632.501 314.928V314.928ZM637.136 313.399C636.364 313.655 635.592 313.909 634.818 314.165L635.01 314.744C635.782 314.489 636.554 314.233 637.326 313.977L637.136 313.399V313.399ZM641.764 311.856C640.993 312.115 640.221 312.372 639.45 312.629L639.642 313.208C640.414 312.951 641.186 312.693 641.957 312.435L641.764 311.856V311.856ZM646.386 310.301C645.617 310.561 644.846 310.821 644.076 311.081L644.27 311.659C645.041 311.4 645.812 311.14 646.582 310.88L646.386 310.301V310.301ZM651.004 308.732C650.234 308.996 649.466 309.257 648.697 309.519L648.893 310.096C649.662 309.835 650.432 309.573 651.201 309.309L651.004 308.732V308.732ZM655.616 307.149C654.846 307.415 654.078 307.679 653.31 307.943L653.509 308.52C654.277 308.256 655.046 307.991 655.814 307.725L655.616 307.149V307.149ZM660.22 305.549C659.453 305.817 658.685 306.085 657.918 306.352L658.118 306.928C658.886 306.661 659.653 306.393 660.421 306.125L660.22 305.549ZM664.817 303.933C664.05 304.204 663.285 304.475 662.518 304.744L662.721 305.32C663.488 305.049 664.253 304.78 665.02 304.509L664.817 303.933ZM669.406 302.3C668.641 302.575 667.877 302.847 667.113 303.119L667.317 303.693C668.082 303.421 668.846 303.148 669.612 302.875L669.406 302.3ZM673.988 300.648C673.225 300.925 672.461 301.201 671.698 301.476L671.905 302.051C672.669 301.775 673.433 301.499 674.197 301.221L673.988 300.648ZM678.562 298.977C677.8 299.259 677.038 299.537 676.277 299.816L676.486 300.388C677.248 300.111 678.01 299.831 678.773 299.551L678.562 298.977V298.977ZM683.128 297.288C682.366 297.572 681.606 297.853 680.846 298.136L681.058 298.708C681.818 298.425 682.58 298.143 683.341 297.86L683.128 297.288ZM687.685 295.577C686.925 295.864 686.166 296.151 685.408 296.435L685.621 297.007C686.381 296.721 687.14 296.435 687.9 296.148L687.685 295.577V295.577ZM692.232 293.847C691.474 294.137 690.716 294.427 689.96 294.715L690.177 295.284C690.934 294.996 691.692 294.707 692.45 294.416L692.232 293.847Z" fill="#323980"/>
<path d="M583.806 331.117L583.623 330.536C584.402 330.291 585.179 330.047 585.956 329.801L586.139 330.384C585.363 330.628 584.584 330.873 583.806 331.117ZM588.472 329.649L588.29 329.068C589.068 328.823 589.846 328.579 590.622 328.333L590.806 328.916C590.028 329.16 589.251 329.405 588.472 329.649ZM593.138 328.181L592.955 327.599C593.732 327.353 594.51 327.109 595.287 326.864L595.47 327.445C594.694 327.691 593.916 327.936 593.138 328.181ZM597.802 326.711L597.618 326.128C598.396 325.883 599.172 325.637 599.95 325.392L600.132 325.973C599.356 326.219 598.579 326.464 597.802 326.711ZM602.463 325.236L602.279 324.655C603.056 324.408 603.834 324.163 604.608 323.916L604.794 324.497C604.018 324.744 603.24 324.989 602.463 325.236V325.236ZM607.123 323.759L606.938 323.177C607.715 322.929 608.491 322.683 609.267 322.436L609.451 323.017C608.676 323.264 607.9 323.511 607.123 323.759ZM611.779 322.275L611.594 321.693C612.371 321.447 613.146 321.197 613.92 320.951L614.107 321.531C613.332 321.779 612.556 322.027 611.779 322.275V322.275ZM616.434 320.785L616.247 320.204C617.023 319.956 617.798 319.707 618.572 319.457L618.759 320.039C617.984 320.287 617.21 320.536 616.434 320.785ZM621.083 319.289L620.896 318.708C621.671 318.459 622.446 318.208 623.219 317.957L623.407 318.537C622.634 318.788 621.859 319.039 621.083 319.289V319.289ZM625.73 317.784L625.542 317.204C626.316 316.952 627.09 316.7 627.863 316.448L628.052 317.028C627.279 317.28 626.504 317.532 625.73 317.784ZM630.372 316.269L630.183 315.689C630.956 315.436 631.73 315.183 632.502 314.928L632.692 315.508C631.919 315.763 631.146 316.016 630.372 316.269V316.269ZM635.011 314.744L634.819 314.165C635.592 313.909 636.364 313.655 637.136 313.399L637.327 313.977C636.555 314.233 635.783 314.489 635.011 314.744V314.744ZM639.643 313.208L639.451 312.629C640.222 312.372 640.994 312.115 641.764 311.856L641.958 312.435C641.187 312.693 640.415 312.951 639.643 313.208V313.208ZM644.271 311.659L644.076 311.081C644.847 310.821 645.618 310.561 646.387 310.301L646.583 310.88C645.812 311.14 645.042 311.4 644.271 311.659V311.659ZM648.894 310.096L648.698 309.519C649.467 309.257 650.235 308.996 651.004 308.732L651.202 309.309C650.432 309.573 649.663 309.835 648.894 310.096V310.096ZM653.51 308.52L653.311 307.943C654.079 307.679 654.847 307.415 655.616 307.149L655.815 307.725C655.047 307.991 654.278 308.256 653.51 308.52V308.52ZM658.119 306.928L657.919 306.352C658.686 306.085 659.454 305.817 660.22 305.549L660.422 306.125C659.654 306.393 658.887 306.661 658.119 306.928ZM662.722 305.32L662.519 304.744C663.286 304.475 664.051 304.204 664.818 303.933L665.02 304.509C664.254 304.78 663.488 305.049 662.722 305.32ZM667.318 303.693L667.114 303.119C667.878 302.847 668.642 302.575 669.407 302.3L669.612 302.875C668.847 303.148 668.083 303.421 667.318 303.693ZM671.906 302.051L671.699 301.476C672.462 301.201 673.226 300.925 673.988 300.648L674.198 301.221C673.434 301.499 672.67 301.775 671.906 302.051ZM676.487 300.388L676.278 299.816C677.039 299.537 677.8 299.259 678.563 298.977L678.774 299.551C678.011 299.831 677.248 300.111 676.487 300.388V300.388ZM681.059 298.708L680.847 298.136C681.607 297.853 682.367 297.572 683.128 297.288L683.342 297.86C682.58 298.143 681.819 298.425 681.059 298.708ZM685.622 297.007L685.408 296.435C686.167 296.151 686.926 295.864 687.686 295.577L687.9 296.148C687.14 296.435 686.382 296.721 685.622 297.007V297.007ZM690.178 295.284L689.96 294.715C690.716 294.427 691.475 294.137 692.232 293.847L692.451 294.416C691.692 294.707 690.935 294.996 690.178 295.284ZM694.724 293.541L694.504 292.972C694.85 292.839 695.196 292.705 695.542 292.571C695.911 292.64 696.276 292.716 696.642 292.799C696.002 293.047 695.363 293.295 694.724 293.541Z" fill="#927530"/>
<path d="M645.395 307.773C644.266 307.409 643.104 307.191 641.89 307.236C638.176 307.367 634.946 309.976 632.87 313.059C630.878 316.015 629.672 319.596 630.015 323.144C630.855 331.813 638.718 333.069 646.326 333.067C647.398 329.871 648.119 326.572 648.34 323.207C648.69 317.924 647.754 312.481 645.395 307.773Z" fill="#F78FC5"/>
<path d="M697.352 322.276C694.937 317.5 690.045 314.323 684.879 312.937C679.711 311.552 674.251 311.759 668.931 312.333C664.199 312.843 659.291 313.617 654.776 312.112C651.528 311.029 648.58 308.801 645.395 307.773C647.753 312.481 648.689 317.924 648.34 323.207C648.119 326.572 647.397 329.871 646.325 333.067C649.588 333.065 652.804 332.833 655.399 332.855C666.476 332.941 677.413 337.201 688.403 335.803C692.272 335.311 696.496 333.732 698.033 330.147C699.104 327.647 698.579 324.703 697.352 322.276" fill="#C47C25"/>
<path d="M697.352 322.276C694.937 317.5 690.045 314.323 684.879 312.937C680.936 311.88 676.827 311.752 672.739 312.005C671.037 319.917 672.36 328.423 676.227 335.528C680.285 336.061 684.34 336.32 688.403 335.803C692.272 335.311 696.496 333.732 698.033 330.147C699.104 327.647 698.579 324.703 697.352 322.276" fill="#F89B1C"/>
<path d="M512.396 254.94C520.731 247.215 539.875 254.152 550.161 258.98C559.872 263.536 569.232 268.792 578.584 274.043L641.287 305.148C641.287 305.148 637.859 328.851 633.624 331.203C629.389 333.555 522.277 295.407 522.277 295.407C522.277 295.407 486.205 279.213 512.396 254.94" fill="#313B8C"/>
<path d="M503.021 269.027C503.396 269.747 503.772 270.469 504.151 271.191L504.691 270.907C504.312 270.187 503.937 269.465 503.563 268.745L503.021 269.027ZM505.301 273.348C505.689 274.064 506.084 274.779 506.487 275.487L507.017 275.185C506.616 274.481 506.224 273.771 505.837 273.057L505.301 273.348ZM507.724 277.6C508.148 278.3 508.583 278.992 509.031 279.675L509.54 279.34C509.098 278.664 508.667 277.979 508.247 277.284L507.724 277.6ZM510.419 281.697C510.899 282.363 511.394 283.015 511.907 283.652L512.382 283.269C511.876 282.641 511.388 281.997 510.914 281.34L510.419 281.697ZM513.504 285.52C514.055 286.125 514.627 286.713 515.221 287.281L515.643 286.84C515.059 286.283 514.497 285.705 513.955 285.109L513.504 285.52ZM517.064 288.915C517.7 289.437 518.353 289.933 519.02 290.408L519.374 289.909C518.718 289.444 518.076 288.956 517.452 288.443L517.064 288.915ZM521.071 291.764C521.768 292.195 522.477 292.603 523.197 292.993L523.488 292.457C522.777 292.072 522.077 291.668 521.392 291.245L521.071 291.764ZM525.384 294.108C526.119 294.461 526.864 294.799 527.616 295.123L527.857 294.563C527.112 294.241 526.375 293.908 525.648 293.559L525.384 294.108ZM529.884 296.051C530.643 296.348 531.408 296.632 532.176 296.908L532.383 296.335C531.619 296.06 530.859 295.777 530.105 295.483L529.884 296.051ZM534.488 297.711C535.261 297.971 536.036 298.223 536.811 298.472L536.997 297.891C536.224 297.643 535.452 297.391 534.683 297.132L534.488 297.711ZM539.142 299.207C539.536 299.329 539.929 299.452 540.323 299.573C540.707 299.692 541.089 299.811 541.472 299.931L541.653 299.348C541.269 299.228 540.887 299.109 540.504 298.991C540.111 298.869 539.717 298.747 539.323 298.624L539.142 299.207ZM543.803 300.652C544.58 300.893 545.357 301.135 546.133 301.375L546.315 300.792C545.537 300.552 544.76 300.311 543.984 300.069L543.803 300.652ZM548.464 302.097C549.241 302.339 550.017 302.58 550.795 302.82L550.976 302.237C550.199 301.997 549.421 301.756 548.645 301.515L548.464 302.097ZM553.125 303.543C553.903 303.784 554.679 304.024 555.456 304.265L555.636 303.683C554.86 303.441 554.083 303.201 553.307 302.96L553.125 303.543ZM557.787 304.988C558.564 305.229 559.34 305.469 560.117 305.711L560.297 305.128C559.521 304.887 558.744 304.647 557.967 304.405L557.787 304.988ZM562.448 306.433C563.224 306.673 564.001 306.915 564.779 307.156L564.959 306.573C564.183 306.332 563.405 306.091 562.628 305.851L562.448 306.433ZM567.109 307.879C567.885 308.119 568.663 308.36 569.44 308.601L569.62 308.019C568.844 307.777 568.067 307.536 567.289 307.296L567.109 307.879ZM571.771 309.323C572.103 309.427 572.435 309.529 572.767 309.632H572.764L574.094 310.057L574.28 309.477L572.951 309.051L572.948 309.049C572.615 308.947 572.283 308.844 571.951 308.741L571.771 309.323ZM576.417 310.803L578.741 311.548L578.927 310.968L576.604 310.223L576.417 310.803ZM581.064 312.293L583.388 313.039L583.573 312.459L581.251 311.713L581.064 312.293ZM585.711 313.784L588.035 314.529L588.222 313.949L585.897 313.204L585.711 313.784ZM590.358 315.275L592.681 316.02L592.868 315.439L590.544 314.695L590.358 315.275ZM595.005 316.765L597.328 317.511L597.515 316.929L595.191 316.184L595.005 316.765ZM599.652 318.256L601.975 319.001L602.161 318.42L599.837 317.675L599.652 318.256ZM604.299 319.747L606.622 320.492L606.808 319.911L604.486 319.165L604.299 319.747ZM608.945 321.237L611.269 321.983L611.455 321.401L609.132 320.656L608.945 321.237ZM613.592 322.728L615.916 323.473L616.103 322.892L613.779 322.147L613.592 322.728ZM618.239 324.219L620.563 324.964L620.75 324.383L618.425 323.637L618.239 324.219ZM622.886 325.709L625.209 326.455L625.396 325.873L623.072 325.128L622.886 325.709ZM627.533 327.2L629.856 327.944L630.043 327.364L627.719 326.619" fill="#F89B1C"/>
</g>
<defs>
<clipPath id="clip0">
<rect width="926" height="595.08" fill="white"/>
</clipPath>
</defs>
</svg>
