<svg width="50" height="50" viewBox="0 0 50 50" fill="none" xmlns="http://www.w3.org/2000/svg">
<path d="M39.2857 28.5714C35.7415 28.5714 32.6183 30.3209 30.6668 32.9801L20.9161 28.1035C21.218 27.1145 21.4286 26.0863 21.4286 24.9999C21.4286 23.9135 21.218 22.8851 20.9161 21.8963L30.6668 17.0197C32.6183 19.6789 35.7415 21.4284 39.2857 21.4284C45.1939 21.4284 50 16.6223 50 10.7142C50 4.80601 45.194 0 39.2857 0C33.3774 0 28.5714 4.80611 28.5714 10.7143C28.5714 11.8007 28.7822 12.8289 29.0841 13.8177L19.333 18.6944C17.3816 16.0353 14.2584 14.2857 10.7142 14.2857C4.80602 14.2857 0 19.0917 0 25C0 30.9083 4.80602 35.7143 10.7143 35.7143C14.2585 35.7143 17.3817 33.9647 19.3332 31.3056L29.0839 36.1823C28.782 37.171 28.5714 38.1992 28.5714 39.2857C28.5714 45.1939 33.3774 50 39.2857 50C45.194 50 50 45.1939 50 39.2857C50 33.3776 45.1939 28.5714 39.2857 28.5714ZM39.2857 3.57146C43.2251 3.57146 46.4285 6.77671 46.4285 10.7143C46.4285 14.6519 43.225 17.8571 39.2857 17.8571C35.3463 17.8571 32.1429 14.6518 32.1429 10.7143C32.1429 6.77671 35.3464 3.57146 39.2857 3.57146ZM10.7143 32.1428C6.77486 32.1428 3.57147 28.9376 3.57147 25C3.57147 21.0623 6.77496 17.8572 10.7143 17.8572C14.6537 17.8572 17.8571 21.0624 17.8571 25C17.8571 28.9376 14.6537 32.1428 10.7143 32.1428ZM39.2857 46.4284C35.3463 46.4284 32.1429 43.2232 32.1429 39.2856C32.1429 35.3481 35.3464 32.1428 39.2857 32.1428C43.2251 32.1428 46.4285 35.3481 46.4285 39.2856C46.4285 43.2233 43.2251 46.4284 39.2857 46.4284Z" fill="#FEFFFE"/>
</svg>
