<svg width="50" height="50" viewBox="0 0 50 50" fill="none" xmlns="http://www.w3.org/2000/svg">
<path d="M49.078 17.7989C48.5065 17.1576 47.7256 16.7404 46.8748 16.622V16.6202L33.5864 14.7846L28.3279 2.21935C27.5601 0.380156 25.4467 -0.488333 23.6076 0.279508C22.7308 0.645589 22.0337 1.3426 21.6677 2.21935L16.4092 14.7846L3.1208 16.6202C1.14099 16.8958 -0.240575 18.7243 0.0350059 20.7041C0.153441 21.5549 0.570579 22.3358 1.21193 22.9073L11.2238 31.8352L9.16664 45.8449C8.94379 47.2675 9.59717 48.6848 10.8237 49.4393C12.0329 50.2126 13.5884 50.1837 14.768 49.366L24.9977 42.4093L35.2274 49.3731C36.878 50.4935 39.1244 50.0636 40.2449 48.4129C40.754 47.6627 40.9625 46.7486 40.8289 45.852L38.7719 31.8369L48.7837 22.909C50.2761 21.5792 50.4079 19.2913 49.078 17.7989Z" fill="#FF7540"/>
</svg>
