<svg width="50" height="50" viewBox="0 0 50 50" fill="none" xmlns="http://www.w3.org/2000/svg">
<path d="M49.078 17.7989C48.5065 17.1576 47.7256 16.7404 46.8748 16.622V16.6202L33.5864 14.7846L28.3279 2.21935C27.5601 0.380156 25.4467 -0.488333 23.6076 0.279508C22.7308 0.645589 22.0337 1.3426 21.6677 2.21935L16.4092 14.7846L3.1208 16.6202C1.14099 16.8958 -0.240575 18.7243 0.0350059 20.7041C0.153441 21.5549 0.570579 22.3358 1.21193 22.9073L11.2238 31.8352L9.16664 45.8449C8.94379 47.2675 9.59717 48.6848 10.8237 49.4393C12.0329 50.2126 13.5884 50.1837 14.768 49.366L24.9977 42.4093L35.2274 49.3731C36.878 50.4935 39.1244 50.0636 40.2449 48.4129C40.754 47.6628 40.9625 46.7486 40.8289 45.852L38.7719 31.8369L48.7837 22.909C50.2761 21.5792 50.4079 19.2913 49.078 17.7989ZM35.6756 29.8192C35.2277 30.2194 35.011 30.8179 35.0988 31.412L37.2415 46.411L26.0066 38.7723C25.4009 38.3607 24.6053 38.3607 23.9996 38.7723L12.6986 46.3646L14.8966 31.4049C14.982 30.8132 14.7654 30.218 14.3198 29.8193L3.60626 20.1628L17.9053 18.1897C18.5314 18.1034 19.0651 17.6925 19.3087 17.1094L25.0191 3.5711C25.0255 3.57905 25.0304 3.58816 25.0334 3.59789L30.6848 17.1023C30.9285 17.6854 31.4623 18.0962 32.0882 18.1826L46.4052 20.2431L35.6756 29.8192Z" fill="#FF7540"/>
</svg>
