<svg width="50" height="50" viewBox="0 0 50 50" fill="none" xmlns="http://www.w3.org/2000/svg">
<path d="M50 47.0401L37.7231 1.01797L28.629 3.1499V0H0V50H28.629V15.9692L37.6874 49.9266L50 47.0401ZM25.6978 2.92539V47.0401H15.7802V2.92539H25.6978ZM12.8489 2.92539V46.4292H2.93126V2.92539H12.8489ZM35.6228 4.51533L46.3907 44.8813L39.7878 46.4292L29.0199 6.06328L35.6228 4.51533Z" fill="#6F6EBB"/>
<path d="M6 7H9.0918V9.92539H6V7Z" fill="#6F6EBB"/>
<path d="M19 7H22.0918V9.92539H19V7Z" fill="#6F6EBB"/>
<path d="M40.0186 40.7671L43.0185 40.0191L43.7262 42.8576L40.7263 43.6056L40.0186 40.7671Z" fill="#6F6EBB"/>
</svg>
