<svg width="50" height="50" viewBox="0 0 50 50" fill="none" xmlns="http://www.w3.org/2000/svg">
<g clip-path="url(#clip0)">
<path d="M36.4732 29.8065L36.4545 29.9628C31.8732 27.6794 31.394 27.3753 30.8024 28.2628C30.392 28.8774 29.1961 30.2711 28.8357 30.6836C28.4711 31.0899 28.1086 31.1211 27.4899 30.8399C26.8649 30.5274 24.8586 29.8711 22.4836 27.7461C20.6336 26.0899 19.392 24.0586 19.0253 23.4336C18.4149 22.3794 19.692 22.2294 20.8545 20.0294C21.0628 19.5919 20.9565 19.2482 20.8024 18.9378C20.6461 18.6253 19.4024 15.5628 18.8815 14.3419C18.3815 13.1253 17.867 13.2794 17.4815 13.2794C16.2815 13.1753 15.4045 13.1919 14.6315 13.9961C11.269 17.6919 12.117 21.5044 14.994 25.5586C20.6482 32.9586 23.6607 34.3211 29.169 36.2128C30.6565 36.6857 32.0128 36.619 33.0857 36.4649C34.2815 36.2753 36.767 34.9628 37.2857 33.494C37.817 32.0253 37.817 30.8065 37.6607 30.5253C37.5065 30.244 37.0982 30.0878 36.4732 29.8065V29.8065Z" fill="#6F6EBB"/>
<path d="M42.75 7.18534C26.7312 -8.30008 0.220833 2.93117 0.210417 24.777C0.210417 29.1437 1.35417 33.402 3.53333 37.1624L0 49.9999L13.1979 46.5583C29.6667 55.4541 49.9917 43.6416 50 24.7895C50 18.1728 47.4167 11.9458 42.7187 7.26659L42.75 7.18534ZM45.8375 24.7208C45.825 40.6228 28.3687 50.5541 14.5625 42.4374L13.8125 41.9916L6 44.0228L8.09375 36.4291L7.59583 35.6478C-0.995834 21.9708 8.875 4.09576 25.15 4.09576C30.6792 4.09576 35.8687 6.25201 39.7771 10.1583C43.6833 14.0312 45.8375 19.2208 45.8375 24.7208V24.7208Z" fill="#6F6EBB"/>
</g>
<defs>
<clipPath id="clip0">
<rect width="50" height="50" fill="white"/>
</clipPath>
</defs>
</svg>
