<svg width="100" height="100" viewBox="0 0 100 100" fill="none" xmlns="http://www.w3.org/2000/svg">
<path d="M14.6446 85.3556C19.2343 89.9451 24.5806 93.5491 30.5355 96.0679C36.7045 98.6771 43.2532 100 49.9999 100C56.7464 100 63.2953 98.6771 69.4644 96.0679C75.4191 93.5491 80.7656 89.9449 85.3554 85.3556C89.9448 80.7658 93.5491 75.4195 96.0676 69.4645C98.6768 63.2954 100 56.7465 100 50.0002C100 43.2533 98.6768 36.7046 96.0676 30.5356C93.5491 24.5807 89.9446 19.2344 85.3554 14.6447C80.7656 10.0551 75.4193 6.45093 69.4644 3.9323C63.2951 1.32287 56.7464 0 49.9999 0C43.2532 0 36.7045 1.32304 30.5355 3.9323C24.5806 6.45093 19.2343 10.0552 14.6446 14.6447C10.055 19.2342 6.45089 24.5807 3.93211 30.5354C1.32303 36.7046 0 43.2533 0 50.0002C0 56.7467 1.32303 63.2954 3.93228 69.4645C6.45089 75.4195 10.0552 80.7658 14.6446 85.3556Z" fill="#FEFFFE"/>
<path d="M74.078 42.7989C73.5065 42.1576 72.7256 41.7404 71.8748 41.622V41.6202L58.5864 39.7846L53.3279 27.2194C52.5601 25.3802 50.4467 24.5117 48.6076 25.2795C47.7308 25.6456 47.0337 26.3426 46.6677 27.2194L41.4092 39.7846L28.1208 41.6202C26.141 41.8958 24.7594 43.7243 25.035 45.7041C25.1534 46.5549 25.5706 47.3358 26.2119 47.9073L36.2238 56.8352L34.1666 70.8449C33.9438 72.2675 34.5972 73.6848 35.8237 74.4393C37.0329 75.2126 38.5884 75.1837 39.768 74.366L49.9977 67.4093L60.2274 74.3731C61.878 75.4935 64.1244 75.0636 65.2449 73.4129C65.754 72.6627 65.9625 71.7486 65.8289 70.852L63.7719 56.8369L73.7837 47.909C75.2761 46.5792 75.4079 44.2913 74.078 42.7989Z" fill="#FF7540"/>
</svg>
